<svg xmlns="http://www.w3.org/2000/svg" xmlns:xlink="http://www.w3.org/1999/xlink" width="7.73mm" height="7.73mm" version="1.2" viewBox="0 0 4.4 4.4"><line x1=".06" x2="3.94" y1="0" y2="0" stroke="currentColor" stroke-linecap="round" stroke-linejoin="round" stroke-width=".12" transform="translate(0.2000, 4.3000)"/><line x1=".06" x2="3.94" y1="0" y2="0" stroke="currentColor" stroke-linecap="round" stroke-linejoin="round" stroke-width=".12" transform="translate(0.2000, 3.3000)"/><line x1=".06" x2="3.94" y1="0" y2="0" stroke="currentColor" stroke-linecap="round" stroke-linejoin="round" stroke-width=".12" transform="translate(0.2000, 2.3000)"/><line x1=".06" x2="3.94" y1="0" y2="0" stroke="currentColor" stroke-linecap="round" stroke-linejoin="round" stroke-width=".12" transform="translate(0.2000, 1.3000)"/><line x1=".06" x2="3.94" y1="0" y2="0" stroke="currentColor" stroke-linecap="round" stroke-linejoin="round" stroke-width=".12" transform="translate(0.2000, 0.3000)"/><path fill="currentColor" d="M0 0c0 31 25 56 56 56s56 -25 56 -56s-25 -56 -56 -56s-56 25 -56 56z" transform="translate(0.9050, 1.8000) scale(0.0040, -0.0040)"/><path fill="currentColor" d="M0 0c0 31 25 56 56 56s56 -25 56 -56s-25 -56 -56 -56s-56 25 -56 56z" transform="translate(0.9050, 2.8000) scale(0.0040, -0.0040)"/><path fill="currentColor" d="M0 0c0 31 25 56 56 56s56 -25 56 -56s-25 -56 -56 -56s-56 25 -56 56z" transform="translate(3.0450, 1.8000) scale(0.0040, -0.0040)"/><path fill="currentColor" d="M0 0c0 31 25 56 56 56s56 -25 56 -56s-25 -56 -56 -56s-56 25 -56 56z" transform="translate(3.0450, 2.8000) scale(0.0040, -0.0040)"/><rect width=".6" height="4" x="0" y="-2" fill="currentColor" ry="0" transform="translate(2.1450, 2.3000)"/><rect width=".19" height="4" x="0" y="-2" fill="currentColor" ry="0" transform="translate(1.6550, 2.3000)"/></svg>