<svg xmlns="http://www.w3.org/2000/svg" xmlns:xlink="http://www.w3.org/1999/xlink" width="45.165" height="45.165" version="1.2" viewBox="0 0 6.8 6.8"><line x1=".06" x2="5.44" y1="0" y2="0" stroke="currentColor" stroke-linecap="round" stroke-linejoin="round" stroke-width=".12" transform="translate(0.6000, 5.3680)"/><line x1=".06" x2="5.44" y1="0" y2="0" stroke="currentColor" stroke-linecap="round" stroke-linejoin="round" stroke-width=".12" transform="translate(0.6000, 4.3680)"/><line x1=".06" x2="5.44" y1="0" y2="0" stroke="currentColor" stroke-linecap="round" stroke-linejoin="round" stroke-width=".12" transform="translate(0.6000, 3.3680)"/><line x1=".06" x2="5.44" y1="0" y2="0" stroke="currentColor" stroke-linecap="round" stroke-linejoin="round" stroke-width=".12" transform="translate(0.6000, 2.3680)"/><line x1=".06" x2="5.44" y1="0" y2="0" stroke="currentColor" stroke-linecap="round" stroke-linejoin="round" stroke-width=".12" transform="translate(0.6000, 1.3680)"/><path fill="currentColor" d="M0 0c0 31 25 56 56 56s56 -25 56 -56s-25 -56 -56 -56s-56 25 -56 56z" transform="translate(1.3600, 2.8680) scale(0.0040, -0.0040)"/><path fill="currentColor" d="M0 0c0 31 25 56 56 56s56 -25 56 -56s-25 -56 -56 -56s-56 25 -56 56z" transform="translate(1.3600, 3.8680) scale(0.0040, -0.0040)"/><path fill="currentColor" d="M0 0c0 31 25 56 56 56s56 -25 56 -56s-25 -56 -56 -56s-56 25 -56 56z" transform="translate(4.8900, 2.8680) scale(0.0040, -0.0040)"/><path fill="currentColor" d="M0 0c0 31 25 56 56 56s56 -25 56 -56s-25 -56 -56 -56s-56 25 -56 56z" transform="translate(4.8900, 3.8680) scale(0.0040, -0.0040)"/><rect width=".19" height="4" x="0" y="-2" fill="currentColor" ry="0" transform="translate(4.4000, 3.3680)"/><rect width=".6" height="4" x="0" y="-2" fill="currentColor" ry="0" transform="translate(3.5000, 3.3680)"/><path fill="currentColor" d="M450 333c9 0 16 -8 16 -16c0 -3 -1 -6 -3 -9c-99 -144 -215 -364 -388 -364h-75v87c0 14 11 25 25 25h50c159 0 271 136 362 270c3 4 8 7 13 7z" transform="translate(3.5000, 1.3680) scale(0.0040, -0.0040)"/><path fill="currentColor" d="M466 -317c0 -8 -7 -16 -16 -16c-5 0 -10 3 -13 7c-91 134 -203 270 -362 270h-50c-14 0 -25 11 -25 25v87h75c173 0 289 -220 388 -364c2 -3 3 -6 3 -9z" transform="translate(3.5000, 5.3680) scale(0.0040, -0.0040)"/><g transform="scale(-1.0000, 1.0000)"><rect width=".6" height="4" x="0" y="-2" fill="currentColor" ry="0" transform="translate(-3.2000, 3.3680)"/><path fill="currentColor" d="M450 333c9 0 16 -8 16 -16c0 -3 -1 -6 -3 -9c-99 -144 -215 -364 -388 -364h-75v87c0 14 11 25 25 25h50c159 0 271 136 362 270c3 4 8 7 13 7z" transform="translate(-3.2000, 1.3680) scale(0.0040, -0.0040)"/><path fill="currentColor" d="M466 -317c0 -8 -7 -16 -16 -16c-5 0 -10 3 -13 7c-91 134 -203 270 -362 270h-50c-14 0 -25 11 -25 25v87h75c173 0 289 -220 388 -364c2 -3 3 -6 3 -9z" transform="translate(-3.2000, 5.3680) scale(0.0040, -0.0040)"/></g><rect width=".19" height="4" x="0" y="-2" fill="currentColor" ry="0" transform="translate(2.1100, 3.3680)"/></svg>