<svg xmlns="http://www.w3.org/2000/svg" xmlns:xlink="http://www.w3.org/1999/xlink" width="7.73mm" height="7.73mm" version="1.2" viewBox="0 0 4.4 4.4"><line x1=".06" x2="3.94" y1="0" y2="0" stroke="currentColor" stroke-linecap="round" stroke-linejoin="round" stroke-width=".12" transform="translate(0.2000, 4.3000)"/><line x1=".06" x2="3.94" y1="0" y2="0" stroke="currentColor" stroke-linecap="round" stroke-linejoin="round" stroke-width=".12" transform="translate(0.2000, 3.3000)"/><line x1=".06" x2="3.94" y1="0" y2="0" stroke="currentColor" stroke-linecap="round" stroke-linejoin="round" stroke-width=".12" transform="translate(0.2000, 2.3000)"/><line x1=".06" x2="3.94" y1="0" y2="0" stroke="currentColor" stroke-linecap="round" stroke-linejoin="round" stroke-width=".12" transform="translate(0.2000, 1.3000)"/><line x1=".06" x2="3.94" y1="0" y2="0" stroke="currentColor" stroke-linecap="round" stroke-linejoin="round" stroke-width=".12" transform="translate(0.2000, 0.3000)"/><rect width=".19" height=".35" x="0" y="-2.05" fill="currentColor" ry=".04" transform="translate(2.1050, 2.3000)"/><rect width=".19" height=".6" x="0" y="-1.3" fill="currentColor" ry=".04" transform="translate(2.1050, 2.3000)"/><rect width=".19" height=".6" x="0" y="-.3" fill="currentColor" ry=".04" transform="translate(2.1050, 2.3000)"/><rect width=".19" height=".6" x="0" y=".7" fill="currentColor" ry=".04" transform="translate(2.1050, 2.3000)"/><rect width=".19" height=".35" x="0" y="1.7" fill="currentColor" ry=".04" transform="translate(2.1050, 2.3000)"/></svg>