<svg xmlns="http://www.w3.org/2000/svg" xmlns:xlink="http://www.w3.org/1999/xlink" width="53.14" height="53.14" version="1.2" viewBox="0 0 8 8"><line x1=".05" x2="3.95" y1="0" y2="0" stroke="currentColor" stroke-linecap="round" stroke-linejoin="round" stroke-width=".1" transform="translate(2.0000, 6.0000)"/><line x1=".05" x2="3.95" y1="0" y2="0" stroke="currentColor" stroke-linecap="round" stroke-linejoin="round" stroke-width=".1" transform="translate(2.0000, 5.0000)"/><line x1=".05" x2="3.95" y1="0" y2="0" stroke="currentColor" stroke-linecap="round" stroke-linejoin="round" stroke-width=".1" transform="translate(2.0000, 4.0000)"/><line x1=".05" x2="3.95" y1="0" y2="0" stroke="currentColor" stroke-linecap="round" stroke-linejoin="round" stroke-width=".1" transform="translate(2.0000, 3.0000)"/><line x1=".05" x2="3.95" y1="0" y2="0" stroke="currentColor" stroke-linecap="round" stroke-linejoin="round" stroke-width=".1" transform="translate(2.0000, 2.0000)"/><path fill="currentColor" d="M490 -250h-92c-6 0 -10 4 -10 10v480c0 6 4 10 10 10h92c6 0 10 -4 10 -10v-480c0 -6 -4 -10 -10 -10zM270 -250h-93c-6 0 -10 4 -10 10v480c0 6 4 10 10 10h93c6 0 10 -4 10 -10v-480c0 -6 -4 -10 -10 -10z" transform="translate(2.1300, 4.0000) scale(0.0040, -0.0040)"/></svg>