<svg xmlns="http://www.w3.org/2000/svg" xmlns:xlink="http://www.w3.org/1999/xlink" width="7.73mm" height="7.73mm" version="1.2" viewBox="0 0 4.4 4.4"><line x1=".034" x2=".717" y1="-.467" y2="-.283" stroke="currentColor" stroke-linecap="round" stroke-linejoin="round" stroke-width=".1" transform="translate(3.7000, 0.6706)"/><line x1=".216" x2=".034" y1=".216" y2="-.467" stroke="currentColor" stroke-linecap="round" stroke-linejoin="round" stroke-width=".1" transform="translate(3.7000, 0.6706)"/><line x1=".034" x2=".717" y1="-.467" y2="-.283" stroke="currentColor" stroke-linecap="round" stroke-linejoin="round" stroke-width=".1" transform="translate(3.2000, 1.1706)"/><line x1=".216" x2=".034" y1=".216" y2="-.467" stroke="currentColor" stroke-linecap="round" stroke-linejoin="round" stroke-width=".1" transform="translate(3.2000, 1.1706)"/><line x1=".034" x2=".717" y1="-.467" y2="-.283" stroke="currentColor" stroke-linecap="round" stroke-linejoin="round" stroke-width=".1" transform="translate(2.7000, 1.6706)"/><line x1=".216" x2=".034" y1=".216" y2="-.467" stroke="currentColor" stroke-linecap="round" stroke-linejoin="round" stroke-width=".1" transform="translate(2.7000, 1.6706)"/><line x1=".034" x2=".717" y1="-.467" y2="-.283" stroke="currentColor" stroke-linecap="round" stroke-linejoin="round" stroke-width=".1" transform="translate(2.2000, 2.1706)"/><line x1=".216" x2=".034" y1=".216" y2="-.467" stroke="currentColor" stroke-linecap="round" stroke-linejoin="round" stroke-width=".1" transform="translate(2.2000, 2.1706)"/><line x1=".034" x2=".717" y1="-.467" y2="-.283" stroke="currentColor" stroke-linecap="round" stroke-linejoin="round" stroke-width=".1" transform="translate(1.7000, 2.6706)"/><line x1=".216" x2=".034" y1=".216" y2="-.467" stroke="currentColor" stroke-linecap="round" stroke-linejoin="round" stroke-width=".1" transform="translate(1.7000, 2.6706)"/><line x1=".034" x2=".717" y1="-.467" y2="-.283" stroke="currentColor" stroke-linecap="round" stroke-linejoin="round" stroke-width=".1" transform="translate(1.2000, 3.1706)"/><line x1=".216" x2=".034" y1=".216" y2="-.467" stroke="currentColor" stroke-linecap="round" stroke-linejoin="round" stroke-width=".1" transform="translate(1.2000, 3.1706)"/><line x1=".034" x2=".717" y1="-.467" y2="-.283" stroke="currentColor" stroke-linecap="round" stroke-linejoin="round" stroke-width=".1" transform="translate(0.7000, 3.6706)"/><line x1=".216" x2=".034" y1=".216" y2="-.467" stroke="currentColor" stroke-linecap="round" stroke-linejoin="round" stroke-width=".1" transform="translate(0.7000, 3.6706)"/><line x1=".034" x2=".717" y1="-.467" y2="-.283" stroke="currentColor" stroke-linecap="round" stroke-linejoin="round" stroke-width=".1" transform="translate(0.2000, 4.1706)"/><line x1=".216" x2=".034" y1=".216" y2="-.467" stroke="currentColor" stroke-linecap="round" stroke-linejoin="round" stroke-width=".1" transform="translate(0.2000, 4.1706)"/></svg>