<svg xmlns="http://www.w3.org/2000/svg" xmlns:xlink="http://www.w3.org/1999/xlink" width="7.73mm" height="7.73mm" version="1.2" viewBox="0 0 4.4 4.4"><polygon fill="currentColor" stroke="currentColor" stroke-linecap="round" stroke-linejoin="round" stroke-width=".08" points="1.399 -.436 1.399 -.132 .04 .152 .04 -.152" transform="translate(0.8562, 1.5798)"/><rect width=".13" height="2.75" x="-.065" y="-2.438" fill="currentColor" ry=".04" transform="translate(3.9262, 2.4378)"/><path fill="currentColor" d="M220 138c56 0 109 -29 109 -91c0 -72 -56 -121 -103 -149c-36 -21 -76 -36 -117 -36c-56 0 -109 29 -109 91c0 72 56 121 103 149c36 21 76 36 117 36z" transform="translate(2.6750, 2.9378) scale(0.0040, -0.0040)"/><rect width=".13" height="2.013" x="-.065" y="-1.129" fill="currentColor" ry=".04" transform="translate(2.2298, 2.4378)"/><path fill="currentColor" d="M211 141c61 0 117 -33 117 -100c0 -71 -52 -121 -99 -149c-34 -20 -73 -33 -112 -33c-61 0 -117 33 -117 100c0 71 52 121 99 149c34 20 73 33 112 33z" transform="translate(1.3664, 3.4378) scale(0.0028, -0.0028)"/><rect width=".13" height="2.255" x="-.065" y="-.871" fill="currentColor" ry=".04" transform="translate(0.9212, 2.4378)"/><path fill="currentColor" d="M211 141c61 0 117 -33 117 -100c0 -71 -52 -121 -99 -149c-34 -20 -73 -33 -112 -33c-61 0 -117 33 -117 100c0 71 52 121 99 149c34 20 73 33 112 33z" transform="translate(0.0578, 3.9378) scale(0.0028, -0.0028)"/></svg>