<svg xmlns="http://www.w3.org/2000/svg" xmlns:xlink="http://www.w3.org/1999/xlink" width="7.73mm" height="7.73mm" version="1.2" viewBox="0 0 4.4 4.4"><polygon fill="currentColor" stroke="currentColor" stroke-linecap="round" stroke-linejoin="round" stroke-width=".08" points="1.395 -.51 1.395 -.206 .04 .152 .04 -.152" transform="translate(2.5461, 1.3580)"/><polygon fill="currentColor" stroke="currentColor" stroke-linecap="round" stroke-linejoin="round" stroke-width=".08" points="1.395 -.51 1.395 -.206 .04 .152 .04 -.152" transform="translate(2.5461, 2.0444)"/><rect width=".13" height="2.368" x="-.065" y="-1.484" fill="currentColor" ry=".04" transform="translate(3.9156, 2.5000)"/><path fill="currentColor" d="M211 141c61 0 117 -33 117 -100c0 -71 -52 -121 -99 -149c-34 -20 -73 -33 -112 -33c-61 0 -117 33 -117 100c0 71 52 121 99 149c34 20 73 33 112 33z" transform="translate(3.0522, 3.5000) scale(0.0028, -0.0028)"/><rect width=".13" height="2.542" x="-.065" y="-1.158" fill="currentColor" ry=".04" transform="translate(2.6111, 2.5000)"/><path fill="currentColor" d="M211 141c61 0 117 -33 117 -100c0 -71 -52 -121 -99 -149c-34 -20 -73 -33 -112 -33c-61 0 -117 33 -117 100c0 71 52 121 99 149c34 20 73 33 112 33z" transform="translate(1.7477, 4.0000) scale(0.0028, -0.0028)"/><rect width=".13" height="3.239" x="-.065" y="-2.5" fill="currentColor" ry=".04" transform="translate(1.3827, 2.5000)"/><path fill="currentColor" d="M315 65c0 24 -21 41 -42 41c-4 0 -8 0 -12 -1c-31 -9 -77 -40 -114 -64s-84 -53 -104 -78c-7 -8 -11 -18 -11 -28c0 -24 21 -41 42 -41c4 0 8 0 12 1c31 9 78 40 115 64s84 53 104 78c7 8 10 18 10 28zM264 137c47 0 83 -21 83 -72c0 -19 -4 -37 -10 -56 c-12 -38 -32 -74 -65 -96c-54 -36 -113 -51 -188 -51c-47 0 -84 22 -84 73c0 19 5 37 11 56c12 38 31 74 64 96c54 36 114 50 189 50z" transform="translate(0.0577, 3.5000) scale(0.0040, -0.0040)"/></svg>