<svg xmlns="http://www.w3.org/2000/svg" xmlns:xlink="http://www.w3.org/1999/xlink" width="5.62mm" height="5.62mm" version="1.2" viewBox="0 0 3.2 3.2"><path fill="currentColor" d="M0 0c0 31 25 56 56 56s56 -25 56 -56s-25 -56 -56 -56s-56 25 -56 56z" transform="translate(2.4090, 2.6000) scale(0.0040, -0.0040)"/><rect width=".13" height="2.139" x="1.26" y="-2.4" fill="currentColor" ry=".022" transform="translate(0.5691, 2.6000)"/><path fill="currentColor" d="M315 65c0 24 -21 41 -42 41c-4 0 -8 0 -12 -1c-31 -9 -77 -40 -114 -64s-84 -53 -104 -78c-7 -8 -11 -18 -11 -28c0 -24 21 -41 42 -41c4 0 8 0 12 1c31 9 78 40 115 64s84 53 104 78c7 8 10 18 10 28zM264 137c47 0 83 -21 83 -72c0 -19 -4 -37 -10 -56 c-12 -38 -32 -74 -65 -96c-54 -36 -113 -51 -188 -51c-47 0 -84 22 -84 73c0 19 5 37 11 56c12 38 31 74 64 96c54 36 114 50 189 50z" transform="translate(0.5691, 2.6000) scale(0.0040, -0.0040)"/></svg>