<svg xmlns="http://www.w3.org/2000/svg" xmlns:xlink="http://www.w3.org/1999/xlink" width="5.62mm" height="5.62mm" version="1.2" viewBox="0 0 3.2 3.2"><path fill="currentColor" d="M0 0c0 31 25 56 56 56s55 -25 55 -56s-24 -56 -55 -56s-56 25 -56 56z" transform="translate(2.3539, 2.6818) scale(0.0036, -0.0036)"/><path fill="currentColor" d="M0 0c0 -178 203 -291 203 -469c0 -33 -8 -65 -23 -95c18 -36 29 -75 29 -117c0 -63 -16 -126 -42 -183c-5 -8 -12 -12 -20 -12c-14 0 -27 11 -24 28c26 52 42 109 42 167c0 97 -94 190 -165 256v-75h-18v500h18zM151 -514c5 15 8 30 8 45c0 95 -91 189 -159 256 c0 -117 89 -204 151 -301z" transform="translate(1.4566, 0.0626) scale(0.0036, -0.0036)"/><rect width=".116" height="2.458" x="1.056" y="-2.619" fill="currentColor" ry=".019" transform="translate(0.2845, 2.6818)"/><path fill="currentColor" d="M217 139c57 0 112 -31 112 -94c0 -72 -55 -121 -102 -149c-35 -21 -74 -35 -115 -35c-57 0 -112 31 -112 94c0 72 55 121 102 149c35 21 74 35 115 35z" transform="translate(0.2845, 2.6818) scale(0.0036, -0.0036)"/></svg>