<svg xmlns="http://www.w3.org/2000/svg" xmlns:xlink="http://www.w3.org/1999/xlink" width="7.73mm" height="7.73mm" version="1.2" viewBox="0 0 4.4 4.4"><polygon fill="currentColor" stroke="currentColor" stroke-linecap="round" stroke-linejoin="round" stroke-width=".08" points="3.006 -.39 3.006 .01 .04 .2 .04 -.2" transform="translate(1.2504, 0.4299)"/><polygon fill="currentColor" stroke="currentColor" stroke-linecap="round" stroke-linejoin="round" stroke-width=".08" points="3.006 -.39 3.006 .01 .04 .2 .04 -.2" transform="translate(1.2504, 1.2399)"/><rect width=".13" height="2.808" x="-.065" y="-1.996" fill="currentColor" ry=".04" transform="translate(4.2316, 2.2399)"/><path fill="currentColor" d="M220 138c56 0 109 -29 109 -91c0 -72 -56 -121 -103 -149c-36 -21 -76 -36 -117 -36c-56 0 -109 29 -109 91c0 72 56 121 103 149c36 21 76 36 117 36z" transform="translate(2.9804, 3.2399) scale(0.0040, -0.0040)"/><rect width=".13" height="3.126" x="-.065" y="-1.814" fill="currentColor" ry=".04" transform="translate(1.3154, 2.2399)"/><path fill="currentColor" d="M220 138c56 0 109 -29 109 -91c0 -72 -56 -121 -103 -149c-36 -21 -76 -36 -117 -36c-56 0 -109 29 -109 91c0 72 56 121 103 149c36 21 76 36 117 36z" transform="translate(0.0642, 3.7399) scale(0.0040, -0.0040)"/></svg>