<svg xmlns="http://www.w3.org/2000/svg" xmlns:xlink="http://www.w3.org/1999/xlink" width="53.14" height="53.14" version="1.2" viewBox="0 0 16 16"><line x1=".083" x2="10.917" y1="0" y2="0" stroke="currentColor" stroke-linecap="round" stroke-linejoin="round" stroke-width=".166" transform="translate(3.0000, 5.9000)"/><line x1=".083" x2="10.917" y1="0" y2="0" stroke="currentColor" stroke-linecap="round" stroke-linejoin="round" stroke-width=".166" transform="translate(3.0000, 4.9000)"/><line x1=".083" x2="10.917" y1="0" y2="0" stroke="currentColor" stroke-linecap="round" stroke-linejoin="round" stroke-width=".166" transform="translate(3.0000, 3.9000)"/><line x1=".083" x2="10.917" y1="0" y2="0" stroke="currentColor" stroke-linecap="round" stroke-linejoin="round" stroke-width=".166" transform="translate(3.0000, 2.9000)"/><line x1=".083" x2="10.917" y1="0" y2="0" stroke="currentColor" stroke-linecap="round" stroke-linejoin="round" stroke-width=".166" transform="translate(3.0000, 1.9000)"/><line x1=".083" x2="10.917" y1="0" y2="0" stroke="currentColor" stroke-linecap="round" stroke-linejoin="round" stroke-width=".166" transform="translate(3.0000, 13.9000)"/><line x1=".083" x2="10.917" y1="0" y2="0" stroke="currentColor" stroke-linecap="round" stroke-linejoin="round" stroke-width=".166" transform="translate(3.0000, 12.9000)"/><line x1=".083" x2="10.917" y1="0" y2="0" stroke="currentColor" stroke-linecap="round" stroke-linejoin="round" stroke-width=".166" transform="translate(3.0000, 11.9000)"/><line x1=".083" x2="10.917" y1="0" y2="0" stroke="currentColor" stroke-linecap="round" stroke-linejoin="round" stroke-width=".166" transform="translate(3.0000, 10.9000)"/><line x1=".083" x2="10.917" y1="0" y2="0" stroke="currentColor" stroke-linecap="round" stroke-linejoin="round" stroke-width=".166" transform="translate(3.0000, 9.9000)"/><path fill="currentColor" d="M437 328c14 0 24 -12 24 -24c0 -4 -1 -8 -3 -12c-82 -141 -184 -348 -344 -348h-114v74c0 21 17 38 38 38h76c142 0 230 134 303 260c4 8 12 12 20 12z" transform="translate(1.5849, 1.5921) scale(0.0040, -0.0040)"/><path fill="currentColor" d="M461 -304c0 -12 -10 -24 -24 -24c-8 0 -16 4 -20 12c-73 126 -161 260 -303 260h-76c-21 0 -38 17 -38 38v74h114c160 0 262 -207 344 -348c2 -4 3 -8 3 -12z" transform="translate(1.5849, 14.2079) scale(0.0040, -0.0040)"/><rect width=".45" height="12.256" x="0" y="-6.128" fill="currentColor" ry="0" transform="translate(1.5849, 7.9000)"/><rect width=".265" height="12.166" x="0" y="-6.083" fill="currentColor" ry=".083" transform="translate(2.8349, 7.9000)"/></svg>