<svg xmlns="http://www.w3.org/2000/svg" xmlns:xlink="http://www.w3.org/1999/xlink" width="53.14" height="53.14" version="1.2" viewBox="0 0 16 16"><line x1=".083" x2="10.917" y1="0" y2="0" stroke="currentColor" stroke-linecap="round" stroke-linejoin="round" stroke-width=".166" transform="translate(3.0000, 5.9000)"/><line x1=".083" x2="10.917" y1="0" y2="0" stroke="currentColor" stroke-linecap="round" stroke-linejoin="round" stroke-width=".166" transform="translate(3.0000, 4.9000)"/><line x1=".083" x2="10.917" y1="0" y2="0" stroke="currentColor" stroke-linecap="round" stroke-linejoin="round" stroke-width=".166" transform="translate(3.0000, 3.9000)"/><line x1=".083" x2="10.917" y1="0" y2="0" stroke="currentColor" stroke-linecap="round" stroke-linejoin="round" stroke-width=".166" transform="translate(3.0000, 2.9000)"/><line x1=".083" x2="10.917" y1="0" y2="0" stroke="currentColor" stroke-linecap="round" stroke-linejoin="round" stroke-width=".166" transform="translate(3.0000, 1.9000)"/><line x1=".083" x2="10.917" y1="0" y2="0" stroke="currentColor" stroke-linecap="round" stroke-linejoin="round" stroke-width=".166" transform="translate(3.0000, 13.9000)"/><line x1=".083" x2="10.917" y1="0" y2="0" stroke="currentColor" stroke-linecap="round" stroke-linejoin="round" stroke-width=".166" transform="translate(3.0000, 12.9000)"/><line x1=".083" x2="10.917" y1="0" y2="0" stroke="currentColor" stroke-linecap="round" stroke-linejoin="round" stroke-width=".166" transform="translate(3.0000, 11.9000)"/><line x1=".083" x2="10.917" y1="0" y2="0" stroke="currentColor" stroke-linecap="round" stroke-linejoin="round" stroke-width=".166" transform="translate(3.0000, 10.9000)"/><line x1=".083" x2="10.917" y1="0" y2="0" stroke="currentColor" stroke-linecap="round" stroke-linejoin="round" stroke-width=".166" transform="translate(3.0000, 9.9000)"/><line x1="0" x2=".8" y1="-6.083" y2="-6.083" stroke="currentColor" stroke-linecap="round" stroke-linejoin="round" stroke-width=".166" transform="translate(1.9520, 7.9000)"/><line x1="0" x2=".8" y1="6.083" y2="6.083" stroke="currentColor" stroke-linecap="round" stroke-linejoin="round" stroke-width=".166" transform="translate(1.9520, 7.9000)"/><line x1="0" x2="0" y1="6.083" y2="-6.083" stroke="currentColor" stroke-linecap="round" stroke-linejoin="round" stroke-width=".166" transform="translate(1.9520, 7.9000)"/><rect width=".265" height="12.166" x="0" y="-6.083" fill="currentColor" ry=".083" transform="translate(2.8349, 7.9000)"/></svg>