<svg xmlns="http://www.w3.org/2000/svg" xmlns:xlink="http://www.w3.org/1999/xlink" width="53.14" height="53.14" version="1.2" viewBox="0 0 16 16"><line x1=".083" x2="10.917" y1="0" y2="0" stroke="currentColor" stroke-linecap="round" stroke-linejoin="round" stroke-width=".166" transform="translate(3.0000, 5.9000)"/><line x1=".083" x2="10.917" y1="0" y2="0" stroke="currentColor" stroke-linecap="round" stroke-linejoin="round" stroke-width=".166" transform="translate(3.0000, 4.9000)"/><line x1=".083" x2="10.917" y1="0" y2="0" stroke="currentColor" stroke-linecap="round" stroke-linejoin="round" stroke-width=".166" transform="translate(3.0000, 3.9000)"/><line x1=".083" x2="10.917" y1="0" y2="0" stroke="currentColor" stroke-linecap="round" stroke-linejoin="round" stroke-width=".166" transform="translate(3.0000, 2.9000)"/><line x1=".083" x2="10.917" y1="0" y2="0" stroke="currentColor" stroke-linecap="round" stroke-linejoin="round" stroke-width=".166" transform="translate(3.0000, 1.9000)"/><line x1=".083" x2="10.917" y1="0" y2="0" stroke="currentColor" stroke-linecap="round" stroke-linejoin="round" stroke-width=".166" transform="translate(3.0000, 13.9000)"/><line x1=".083" x2="10.917" y1="0" y2="0" stroke="currentColor" stroke-linecap="round" stroke-linejoin="round" stroke-width=".166" transform="translate(3.0000, 12.9000)"/><line x1=".083" x2="10.917" y1="0" y2="0" stroke="currentColor" stroke-linecap="round" stroke-linejoin="round" stroke-width=".166" transform="translate(3.0000, 11.9000)"/><line x1=".083" x2="10.917" y1="0" y2="0" stroke="currentColor" stroke-linecap="round" stroke-linejoin="round" stroke-width=".166" transform="translate(3.0000, 10.9000)"/><line x1=".083" x2="10.917" y1="0" y2="0" stroke="currentColor" stroke-linecap="round" stroke-linejoin="round" stroke-width=".166" transform="translate(3.0000, 9.9000)"/><path fill="currentColor" d="M-18 -465c0 -243 -93 -477 -93 -705c0 -126 30 -246 123 -336c3 -3 3 -6 3 -9c0 -9 -6 -18 -15 -18c-3 0 -9 3 -12 6c-126 123 -168 288 -168 465c0 246 99 489 99 723c0 126 -30 243 -123 333c-3 3 -3 3 -3 6s0 3 3 6c93 90 123 207 123 333c0 234 -99 477 -99 723 c0 177 42 342 168 465c3 3 9 6 12 6c9 0 15 -9 15 -18c0 -3 0 -6 -3 -9c-93 -90 -123 -210 -123 -336c0 -228 93 -462 93 -705c0 -174 -42 -342 -162 -465c120 -123 162 -291 162 -465z" transform="translate(2.5349, 7.9000) scale(0.0040, -0.0040)"/><rect width=".265" height="12.166" x="0" y="-6.083" fill="currentColor" ry=".083" transform="translate(2.8349, 7.9000)"/></svg>