<svg xmlns="http://www.w3.org/2000/svg" xmlns:svg="http://www.w3.org/2000/svg" xmlns:xlink="http://www.w3.org/1999/xlink" id="svg2913" width="48" height="48" version="1.1"><defs id="defs3"><radialGradient id="radialGradient5031" cx="605.714" cy="486.648" r="117.143" fx="605.714" fy="486.648" gradientTransform="matrix(-2.774389,0,0,1.969706,112.7623,-872.8854)" gradientUnits="userSpaceOnUse" xlink:href="#linearGradient5060"/><linearGradient id="linearGradient5060"><stop style="stop-color:black;stop-opacity:1" id="stop5062" offset="0"/><stop style="stop-color:black;stop-opacity:0" id="stop5064" offset="1"/></linearGradient><radialGradient id="radialGradient5029" cx="605.714" cy="486.648" r="117.143" fx="605.714" fy="486.648" gradientTransform="matrix(2.774389,0,0,1.969706,-1891.633,-872.8854)" gradientUnits="userSpaceOnUse" xlink:href="#linearGradient5060"/><linearGradient id="linearGradient5048"><stop style="stop-color:black;stop-opacity:0" id="stop5050" offset="0"/><stop id="stop5056" offset=".5" style="stop-color:black;stop-opacity:1"/><stop style="stop-color:black;stop-opacity:0" id="stop5052" offset="1"/></linearGradient><linearGradient id="linearGradient5027" x1="302.857" x2="302.857" y1="366.648" y2="609.505" gradientTransform="matrix(2.774389,0,0,1.969706,-1892.179,-872.8854)" gradientUnits="userSpaceOnUse" xlink:href="#linearGradient5048"/><linearGradient id="linearGradient6925"><stop style="stop-color:#204a87;stop-opacity:1" id="stop6927" offset="0"/><stop style="stop-color:#204a87;stop-opacity:0" id="stop6929" offset="1"/></linearGradient><linearGradient id="linearGradient6901"><stop style="stop-color:#3465a4;stop-opacity:1" id="stop6903" offset="0"/><stop style="stop-color:#3465a4;stop-opacity:0" id="stop6905" offset="1"/></linearGradient><linearGradient id="linearGradient4991"><stop style="stop-color:#fff;stop-opacity:1" id="stop4993" offset="0"/><stop style="stop-color:#fff;stop-opacity:0" id="stop4995" offset="1"/></linearGradient><radialGradient id="radialGradient4997" cx="23.447" cy="6.458" r="19.063" fx="23.447" fy="6.458" gradientTransform="matrix(-1.0515768,-0.0080505,-0.00818371,1.0689768,34.945194,-0.01631428)" gradientUnits="userSpaceOnUse" xlink:href="#linearGradient4991"/><linearGradient id="linearGradient2187"><stop id="stop2189" offset="0" style="stop-color:#fff;stop-opacity:1"/><stop id="stop2191" offset="1" style="stop-color:#fff;stop-opacity:0"/></linearGradient><linearGradient id="linearGradient1764" x1="33.06" x2="12.624" y1="27.394" y2="12.584" gradientTransform="matrix(0.7312912,0,0,0.7312912,-5.1266284,1.7460737)" gradientUnits="userSpaceOnUse" xlink:href="#linearGradient2187"/><linearGradient id="linearGradient8662"><stop style="stop-color:#000;stop-opacity:1" id="stop8664" offset="0"/><stop style="stop-color:#000;stop-opacity:0" id="stop8666" offset="1"/></linearGradient><radialGradient id="radialGradient8668" cx="24.837" cy="36.421" r="15.645" fx="24.837" fy="36.421" gradientTransform="matrix(1.000000,-7.816467e-32,-1.132409e-32,0.536723,-5.897962e-14,16.87306)" gradientUnits="userSpaceOnUse" xlink:href="#linearGradient8662"/><linearGradient id="linearGradient2555"><stop id="stop2557" offset="0" style="stop-color:#fff;stop-opacity:1"/><stop style="stop-color:#e6e6e6;stop-opacity:1" id="stop2561" offset=".5"/><stop id="stop2563" offset=".75" style="stop-color:#fff;stop-opacity:1"/><stop style="stop-color:#e1e1e1;stop-opacity:1" id="stop2565" offset=".842"/><stop id="stop2559" offset="1" style="stop-color:#fff;stop-opacity:1"/></linearGradient><linearGradient id="linearGradient4274"><stop style="stop-color:#fff;stop-opacity:.25490198" id="stop4276" offset="0"/><stop style="stop-color:#fff;stop-opacity:1" id="stop4278" offset="1"/></linearGradient><linearGradient id="linearGradient4264"><stop id="stop4266" offset="0" style="stop-color:#000;stop-opacity:1"/><stop id="stop4268" offset="1" style="stop-color:#000;stop-opacity:0"/></linearGradient><linearGradient id="linearGradient4254"><stop id="stop4256" offset="0" style="stop-color:#fff;stop-opacity:1"/><stop id="stop4258" offset="1" style="stop-color:#fff;stop-opacity:0"/></linearGradient><linearGradient id="linearGradient4244"><stop id="stop4246" offset="0" style="stop-color:#e4e4e4;stop-opacity:1"/><stop id="stop4248" offset="1" style="stop-color:#d3d3d3;stop-opacity:1"/></linearGradient><linearGradient id="linearGradient4236"><stop id="stop4238" offset="0" style="stop-color:#eee;stop-opacity:1"/><stop id="stop4240" offset="1" style="stop-color:#eee;stop-opacity:0"/></linearGradient><linearGradient id="linearGradient4228"><stop id="stop4230" offset="0" style="stop-color:#bbb;stop-opacity:1"/><stop id="stop4232" offset="1" style="stop-color:#9f9f9f;stop-opacity:1"/></linearGradient><linearGradient id="linearGradient4184"><stop id="stop4186" offset="0" style="stop-color:#838383;stop-opacity:1"/><stop id="stop4188" offset="1" style="stop-color:#bbb;stop-opacity:0"/></linearGradient><linearGradient id="linearGradient4209" x1="7.063" x2="24.688" y1="35.281" y2="35.281" gradientTransform="translate(0.795493,3.799180)" gradientUnits="userSpaceOnUse" xlink:href="#linearGradient4184"/><linearGradient id="linearGradient4234" x1="7.605" x2="36.183" y1="28.481" y2="40.944" gradientTransform="translate(0.000000,5.125000)" gradientUnits="userSpaceOnUse" xlink:href="#linearGradient4228"/><linearGradient id="linearGradient4242" x1="12.277" x2="12.222" y1="37.206" y2="33.759" gradientTransform="translate(0.000000,5.125000)" gradientUnits="userSpaceOnUse" xlink:href="#linearGradient4236"/><radialGradient id="radialGradient4250" cx="15.571" cy="2.959" r="20.936" fx="15.571" fy="2.959" gradientTransform="matrix(1.286242,0.781698,-0.710782,1.169552,-2.354348,0.248140)" gradientUnits="userSpaceOnUse" xlink:href="#linearGradient4244"/><linearGradient id="linearGradient4260" x1="12.378" x2="44.096" y1="4.433" y2="47.621" gradientTransform="translate(0.000000,5.125000)" gradientUnits="userSpaceOnUse" xlink:href="#linearGradient4254"/><radialGradient id="radialGradient4270" cx="23.202" cy="27.096" r="23.555" fx="23.202" fy="27.096" gradientTransform="matrix(1.000000,0.000000,0.000000,0.651032,-2.885063e-16,9.455693)" gradientUnits="userSpaceOnUse" xlink:href="#linearGradient4264"/><linearGradient id="linearGradient4272" x1="23.688" x2="23.688" y1="11.319" y2="26.357" gradientTransform="translate(0.000000,5.125000)" gradientUnits="userSpaceOnUse" xlink:href="#linearGradient4274"/><linearGradient id="linearGradient2553" x1="33.431" x2="21.748" y1="31.965" y2="11.781" gradientUnits="userSpaceOnUse" xlink:href="#linearGradient2555"/><linearGradient id="linearGradient6907" x1="14.752" x2="8.895" y1="15.868" y2="16.743" gradientTransform="matrix(0.8,0,0,0.8,-2.0316704,3.9115957)" gradientUnits="userSpaceOnUse" xlink:href="#linearGradient6901"/><linearGradient id="linearGradient6931" x1="12.25" x2="7" y1="18.25" y2="21.118" gradientTransform="matrix(0.8,0,0,0.8,-2.0316704,3.9115957)" gradientUnits="userSpaceOnUse" xlink:href="#linearGradient6925"/><radialGradient id="radialGradient4997-6" cx="23.447" cy="6.458" r="19.063" fx="23.447" fy="6.458" gradientTransform="matrix(-1.0515768,-0.0080505,-0.00818371,1.0689768,53.277766,-0.05363458)" gradientUnits="userSpaceOnUse" xlink:href="#linearGradient4991-6"/><linearGradient id="linearGradient4991-6"><stop style="stop-color:#fff;stop-opacity:1" id="stop4993-4" offset="0"/><stop style="stop-color:#fff;stop-opacity:0" id="stop4995-9" offset="1"/></linearGradient><linearGradient id="linearGradient1764-5" x1="33.06" x2="12.624" y1="27.394" y2="12.584" gradientTransform="matrix(0.7312912,0,0,0.7312912,13.205944,1.7087534)" gradientUnits="userSpaceOnUse" xlink:href="#linearGradient2187-0"/><linearGradient id="linearGradient2187-0"><stop id="stop2189-4" offset="0" style="stop-color:#fff;stop-opacity:1"/><stop id="stop2191-8" offset="1" style="stop-color:#fff;stop-opacity:0"/></linearGradient><linearGradient id="linearGradient6907-7" x1="14.752" x2="8.895" y1="15.868" y2="16.743" gradientTransform="translate(-67.574257,-17.574257)" gradientUnits="userSpaceOnUse" xlink:href="#linearGradient6901-1"/><linearGradient id="linearGradient6901-1"><stop style="stop-color:#3465a4;stop-opacity:1" id="stop6903-7" offset="0"/><stop style="stop-color:#3465a4;stop-opacity:0" id="stop6905-2" offset="1"/></linearGradient><linearGradient id="linearGradient6931-7" x1="12.25" x2="7" y1="18.25" y2="21.118" gradientTransform="translate(-67.574257,-17.574257)" gradientUnits="userSpaceOnUse" xlink:href="#linearGradient6925-2"/><linearGradient id="linearGradient6925-2"><stop style="stop-color:#204a87;stop-opacity:1" id="stop6927-2" offset="0"/><stop style="stop-color:#204a87;stop-opacity:0" id="stop6929-6" offset="1"/></linearGradient><linearGradient id="linearGradient2940" x1="14.752" x2="8.895" y1="15.868" y2="16.743" gradientTransform="matrix(0.8,0,0,0.8,16.300903,3.8742754)" gradientUnits="userSpaceOnUse" xlink:href="#linearGradient6901-1"/><linearGradient id="linearGradient2942" x1="12.25" x2="7" y1="18.25" y2="21.118" gradientTransform="matrix(0.8,0,0,0.8,16.300903,3.8742754)" gradientUnits="userSpaceOnUse" xlink:href="#linearGradient6925-2"/></defs><metadata id="metadata4"/><g id="layer2"><g style="display:inline" id="g5022" transform="matrix(2.411405e-2,0,0,1.929202e-2,45.48953,41.75228)"><rect id="rect4173" width="1339.633" height="478.357" x="-1559.252" y="-150.697" style="opacity:.40206185;color:#000;fill:url(#linearGradient5027);fill-opacity:1;fill-rule:nonzero;stroke:none;stroke-width:1;stroke-linecap:round;stroke-linejoin:miter;marker:none;marker-start:none;marker-mid:none;marker-end:none;stroke-miterlimit:4;stroke-dasharray:none;stroke-dashoffset:0;stroke-opacity:1;visibility:visible;display:inline;overflow:visible"/><path id="path5058" d="M -219.61876,-150.68038 C -219.61876,-150.68038 -219.61876,327.65041 -219.61876,327.65041 C -76.744594,328.55086 125.78146,220.48075 125.78138,88.454235 C 125.78138,-43.572302 -33.655436,-150.68036 -219.61876,-150.68038 z" style="opacity:.40206185;color:#000;fill:url(#radialGradient5029);fill-opacity:1;fill-rule:nonzero;stroke:none;stroke-width:1;stroke-linecap:round;stroke-linejoin:miter;marker:none;marker-start:none;marker-mid:none;marker-end:none;stroke-miterlimit:4;stroke-dasharray:none;stroke-dashoffset:0;stroke-opacity:1;visibility:visible;display:inline;overflow:visible"/><path style="opacity:.40206185;color:#000;fill:url(#radialGradient5031);fill-opacity:1;fill-rule:nonzero;stroke:none;stroke-width:1;stroke-linecap:round;stroke-linejoin:miter;marker:none;marker-start:none;marker-mid:none;marker-end:none;stroke-miterlimit:4;stroke-dasharray:none;stroke-dashoffset:0;stroke-opacity:1;visibility:visible;display:inline;overflow:visible" id="path5018" d="M -1559.2523,-150.68038 C -1559.2523,-150.68038 -1559.2523,327.65041 -1559.2523,327.65041 C -1702.1265,328.55086 -1904.6525,220.48075 -1904.6525,88.454235 C -1904.6525,-43.572302 -1745.2157,-150.68036 -1559.2523,-150.68038 z"/></g><path id="path4196" d="M 11.28569,13.087628 C 10.66069,13.087628 10.254441,13.377808 10.004442,13.931381 C 10.004441,13.931381 3.5356915,31.034938 3.5356915,31.034938 C 3.5356915,31.034938 3.2856915,31.706497 3.2856915,32.816188 C 3.2856915,32.816188 3.2856915,42.466156 3.2856915,42.466156 C 3.2856915,43.548769 3.943477,44.091158 4.9419415,44.091156 L 43.50444,44.091156 C 44.489293,44.091156 45.09819,43.372976 45.09819,42.247406 L 45.09819,32.597438 C 45.09819,32.597438 45.204153,31.827015 45.00444,31.284938 L 38.28569,14.087631 C 38.101165,13.575725 37.648785,13.099533 37.16069,13.087628 L 11.28569,13.087628 z" style="fill:none;fill-opacity:1;fill-rule:evenodd;stroke:#535353;stroke-width:2;stroke-linecap:round;stroke-linejoin:round;stroke-miterlimit:4;stroke-dasharray:none;stroke-opacity:1"/><path id="path4170" d="M 3.2735915,32.121812 L 4.0381936,31.429597 L 41.647883,31.492097 L 45.11029,31.809395 L 45.11029,42.247927 C 45.11029,43.373496 44.503272,44.091258 43.518419,44.091258 L 4.9354314,44.091258 C 3.9369667,44.091258 3.2735915,43.549207 3.2735915,42.466594 L 3.2735915,32.121812 z" style="fill:url(#linearGradient4234);fill-opacity:1;fill-rule:evenodd;stroke:none;stroke-width:1.02044296px;stroke-linecap:butt;stroke-linejoin:miter;stroke-opacity:1"/><path id="path3093" d="M 3.5490842,31.039404 C 2.8347985,32.50369 3.5484686,33.432261 4.5847985,33.432261 C 4.5847985,33.432261 43.584797,33.432261 43.584797,33.432261 C 44.703844,33.408451 45.430035,32.420356 45.013368,31.289403 L 38.299082,14.078704 C 38.114558,13.566798 37.64432,13.090606 37.156225,13.078701 L 11.299083,13.078701 C 10.674083,13.078701 10.263369,13.382274 10.01337,13.935847 C 10.01337,13.935847 3.5490842,31.039404 3.5490842,31.039404 z" style="fill:url(#radialGradient4250);fill-opacity:1;fill-rule:evenodd;stroke:none;stroke-width:1px;stroke-linecap:butt;stroke-linejoin:miter;stroke-opacity:1"/><rect id="rect4174" width="17.625" height="5.563" x="7.858" y="36.299" style="opacity:1;color:#000;fill:url(#linearGradient4209);fill-opacity:1;fill-rule:evenodd;stroke:none;stroke-width:2.40899992;stroke-linecap:round;stroke-linejoin:round;marker:none;marker-start:none;marker-mid:none;marker-end:none;stroke-miterlimit:4;stroke-dasharray:none;stroke-dashoffset:0;stroke-opacity:1;visibility:visible;display:inline;overflow:visible"/><path id="path4194" d="M 7.8579947,41.86168 C 7.8579947,41.86168 7.8579947,37.850195 7.8579947,37.850195 C 9.6935221,41.029421 16.154485,41.86168 20.795492,41.86168 C 20.795492,41.86168 7.8579947,41.86168 7.8579947,41.86168 z" style="opacity:.81142853;fill:url(#linearGradient4242);fill-opacity:1;fill-rule:evenodd;stroke:none;stroke-width:1px;stroke-linecap:butt;stroke-linejoin:miter;stroke-opacity:1"/><path id="path4201" d="M 44.796162,30.753688 C 44.859684,32.003662 44.382159,33.069528 43.474046,33.097438 C 43.474046,33.097438 5.3553296,33.097437 5.3553297,33.097438 C 4.0660978,33.097438 3.4875937,32.772491 3.271279,32.229382 C 3.3630404,33.173714 4.0970964,33.878688 5.3553297,33.878688 C 5.3553296,33.878687 43.474046,33.878688 43.474046,33.878688 C 44.550053,33.845617 45.226851,32.454664 44.82621,30.883897 L 44.796162,30.753688 z" style="fill:#fff;fill-opacity:1;fill-rule:evenodd;stroke:none;stroke-width:1px;stroke-linecap:butt;stroke-linejoin:miter;stroke-opacity:1"/><path id="path4211" d="M 10.96875,15.28125 C 10.922675,15.481571 10.78125,15.668047 10.78125,15.875 C 10.78125,16.823605 11.37223,17.664474 12.125,18.46875 C 12.365268,18.314675 12.490117,18.114342 12.75,17.96875 C 11.809691,17.152746 11.196604,16.252168 10.96875,15.28125 z M 37.625,15.28125 C 37.396273,16.250866 36.782988,17.153676 35.84375,17.96875 C 36.117894,18.122332 36.247738,18.33699 36.5,18.5 C 37.257262,17.693344 37.8125,16.826956 37.8125,15.875 C 37.8125,15.668047 37.670906,15.481571 37.625,15.28125 z M 39.8125,23.71875 C 39.198709,27.758861 32.513887,30.96875 24.28125,30.96875 C 16.068996,30.968751 9.4211001,27.775964 8.78125,23.75 C 8.7488928,23.947132 8.65625,24.141882 8.65625,24.34375 C 8.6562503,28.661697 15.645354,32.187501 24.28125,32.1875 C 32.917146,32.1875 39.937499,28.661698 39.9375,24.34375 C 39.9375,24.130826 39.848449,23.926394 39.8125,23.71875 z" style="opacity:.69142857;color:#000;fill:url(#linearGradient4272);fill-opacity:1;fill-rule:evenodd;stroke:none;stroke-width:2;stroke-linecap:round;stroke-linejoin:round;marker:none;marker-start:none;marker-mid:none;marker-end:none;stroke-miterlimit:4;stroke-dasharray:none;stroke-dashoffset:0;stroke-opacity:1;visibility:visible;display:inline;overflow:visible"/><path id="path4224" d="M 8.5736699 25.593554 A 1.3700194 1.016466 0 1 1 5.833631,25.593554 A 1.3700194 1.016466 0 1 1 8.5736699 25.593554 z" transform="translate(8.838843e-2,5.301780)" style="opacity:1;color:#000;fill:#fff;fill-opacity:.45762706;fill-rule:evenodd;stroke:none;stroke-width:2;stroke-linecap:round;stroke-linejoin:round;marker:none;marker-start:none;marker-mid:none;marker-end:none;stroke-miterlimit:4;stroke-dasharray:none;stroke-dashoffset:0;stroke-opacity:1;visibility:visible;display:inline;overflow:visible"/><path style="opacity:1;color:#000;fill:#fff;fill-opacity:.45762706;fill-rule:evenodd;stroke:none;stroke-width:2;stroke-linecap:round;stroke-linejoin:round;marker:none;marker-start:none;marker-mid:none;marker-end:none;stroke-miterlimit:4;stroke-dasharray:none;stroke-dashoffset:0;stroke-opacity:1;visibility:visible;display:inline;overflow:visible" id="path4226" d="M 8.5736699 25.593554 A 1.3700194 1.016466 0 1 1 5.833631,25.593554 A 1.3700194 1.016466 0 1 1 8.5736699 25.593554 z" transform="translate(33.96705,5.213390)"/><path style="fill:none;fill-opacity:1;fill-rule:evenodd;stroke:url(#linearGradient4260);stroke-width:1.00000024;stroke-linecap:round;stroke-linejoin:round;stroke-miterlimit:4;stroke-dasharray:none;stroke-opacity:1" id="path4252" d="M 11.642515,13.540723 C 11.040823,13.540723 10.649724,13.820081 10.409049,14.35301 C 10.409048,14.35301 3.9940341,30.943732 3.9940341,30.943732 C 3.9940341,30.943732 3.7533573,31.590247 3.7533573,32.658555 C 3.7533573,32.658555 3.7533573,41.948651 3.7533573,41.948651 C 3.7533573,43.303391 4.1974134,43.57555 5.3478414,43.57555 L 43.034746,43.57555 C 44.357872,43.57555 44.569062,43.259153 44.569062,41.738058 L 44.569062,32.447962 C 44.569062,32.447962 44.671072,31.706271 44.478807,31.184409 L 37.885616,14.378434 C 37.707973,13.885617 37.334964,13.552184 36.865071,13.540723 L 11.642515,13.540723 z"/><path style="fill:none;fill-opacity:.75;fill-rule:evenodd;stroke:#fff;stroke-width:1.00000048px;stroke-linecap:square;stroke-linejoin:miter;stroke-opacity:.42372885" id="path4282" d="M 40.5,36.554166 L 40.5,41.575101"/><path id="path4284" d="M 38.5,36.613943 L 38.5,41.634878" style="fill:none;fill-opacity:.75;fill-rule:evenodd;stroke:#fff;stroke-width:1.00000048px;stroke-linecap:square;stroke-linejoin:miter;stroke-opacity:.42372885"/><path style="fill:none;fill-opacity:.75;fill-rule:evenodd;stroke:#fff;stroke-width:1.00000048px;stroke-linecap:square;stroke-linejoin:miter;stroke-opacity:.42372885" id="path4286" d="M 36.5,36.613943 L 36.5,41.634878"/><path id="path4288" d="M 34.5,36.613943 L 34.5,41.634878" style="fill:none;fill-opacity:.75;fill-rule:evenodd;stroke:#fff;stroke-width:1.00000048px;stroke-linecap:square;stroke-linejoin:miter;stroke-opacity:.42372885"/><path style="fill:none;fill-opacity:.75;fill-rule:evenodd;stroke:#fff;stroke-width:1.00000048px;stroke-linecap:square;stroke-linejoin:miter;stroke-opacity:.42372885" id="path4290" d="M 32.5,36.613943 L 32.5,41.634878"/><path id="path4292" d="M 30.5,36.613943 L 30.5,41.634878" style="fill:none;fill-opacity:.75;fill-rule:evenodd;stroke:#fff;stroke-width:1.00000048px;stroke-linecap:square;stroke-linejoin:miter;stroke-opacity:.42372885"/><path id="path4294" d="M 39.5,36.604065 L 39.5,41.625" style="opacity:.09714284;fill:none;fill-opacity:.75;fill-rule:evenodd;stroke:#000;stroke-width:1.00000048px;stroke-linecap:square;stroke-linejoin:miter;stroke-opacity:1"/><path style="opacity:.09714284;fill:none;fill-opacity:.75;fill-rule:evenodd;stroke:#000;stroke-width:1.00000048px;stroke-linecap:square;stroke-linejoin:miter;stroke-opacity:1" id="path4296" d="M 37.5,36.663842 L 37.5,41.684777"/><path id="path4298" d="M 35.5,36.663842 L 35.5,41.684777" style="opacity:.09714284;fill:none;fill-opacity:.75;fill-rule:evenodd;stroke:#000;stroke-width:1.00000048px;stroke-linecap:square;stroke-linejoin:miter;stroke-opacity:1"/><path style="opacity:.09714284;fill:none;fill-opacity:.75;fill-rule:evenodd;stroke:#000;stroke-width:1.00000048px;stroke-linecap:square;stroke-linejoin:miter;stroke-opacity:1" id="path4300" d="M 33.5,36.663842 L 33.5,41.684777"/><path id="path4302" d="M 31.5,36.663842 L 31.5,41.684777" style="opacity:.09714284;fill:none;fill-opacity:.75;fill-rule:evenodd;stroke:#000;stroke-width:1.00000048px;stroke-linecap:square;stroke-linejoin:miter;stroke-opacity:1"/><path id="path4572" d="M 7.875,36.3125 L 7.875,41.84375 L 20.4375,41.84375 L 8.21875,41.5 L 7.875,36.3125 z" style="opacity:.43999999;fill:#fff;fill-opacity:1;fill-rule:evenodd;stroke:none;stroke-width:1px;stroke-linecap:butt;stroke-linejoin:miter;stroke-opacity:1"/><path style="opacity:.20571427;color:#000;fill:url(#linearGradient2553);fill-opacity:1;fill-rule:evenodd;stroke:none;stroke-width:.93365198;stroke-linecap:square;stroke-linejoin:round;marker:none;marker-start:none;marker-mid:none;marker-end:none;stroke-miterlimit:4;stroke-dasharray:none;stroke-dashoffset:0;stroke-opacity:.42372879;visibility:visible;display:inline;overflow:visible" id="path2545" d="M 39.875 19.5625 A 14.875 6.6875 0 1 1 10.125,19.5625 A 14.875 6.6875 0 1 1 39.875 19.5625 z" transform="matrix(1.037815,0.000000,0.000000,1.060747,-1.632878,3.030370)"/></g><g id="layer1"><path id="path8660" d="M 40.481863 36.421127 A 15.644737 8.3968935 0 1 1 9.1923885,36.421127 A 15.644737 8.3968935 0 1 1 40.481863 36.421127 z" transform="matrix(1.130190,1.178179e-16,7.918544e-17,-0.759601,-3.909725,53.66554)" style="opacity:.14117647;color:#000;fill:url(#radialGradient8668);fill-opacity:1;fill-rule:evenodd;stroke:none;stroke-width:1;stroke-linecap:butt;stroke-linejoin:miter;marker:none;marker-start:none;marker-mid:none;marker-end:none;stroke-miterlimit:10;stroke-dasharray:none;stroke-dashoffset:0;stroke-opacity:1;visibility:visible;display:inline;overflow:visible"/><path style="color:#000;fill:url(#linearGradient6907);fill-opacity:1;fill-rule:nonzero;stroke:url(#linearGradient6931);stroke-width:.79999983;stroke-linecap:butt;stroke-linejoin:miter;stroke-miterlimit:4;stroke-opacity:1;stroke-dasharray:none;stroke-dashoffset:0;marker:none;visibility:visible;display:block;overflow:visible" id="path1432" d="M 0.53108964,24.579751 C -0.29331233,-0.39667428 20.961623,3.5507027 20.834263,16.542547 l 5.850331,0 -9.102142,10.388786 -9.5457814,-10.388786 c 0,0 6.0331464,0 6.0331464,0 C 14.435467,7.7670534 0.69571564,5.1996227 0.53108964,24.579751 z"/><path id="path2177" d="M 4.0996976,11.194879 C 7.8934336,3.8795707 20.466199,6.0856307 20.177613,17.17511 l 5.053898,0 c 0,0 -7.65266,8.765901 -7.65266,8.765901 L 9.5016737,17.17511 c 0,0 5.1653123,0 5.1653123,0 C 14.88431,7.9149246 6.7061416,8.3392126 4.0996976,11.194879 z" style="opacity:.47159089;color:#000;fill:none;stroke:url(#linearGradient1764);stroke-width:.79999948;stroke-linecap:butt;stroke-linejoin:miter;stroke-miterlimit:10;stroke-opacity:1;stroke-dasharray:none;stroke-dashoffset:0;marker:none;visibility:visible;display:block;overflow:visible"/><path style="opacity:.49431817;color:#000;fill:url(#radialGradient4997);fill-opacity:1;fill-rule:nonzero;stroke:none;stroke-width:.9999997;marker:none;visibility:visible;display:inline;overflow:visible" id="path4989" d="m 25.782054,16.880886 -1.587341,2.036567 c -4.328025,-1.213034 -6.30892,2.183474 -12.538956,1.385432 l -3.0890284,-3.527227 5.7491764,0.06623 C 14.354905,7.3647614 4.6437766,7.9107686 1.9917426,14.813859 5.0381056,2.9026977 20.282983,4.5567247 20.594986,16.802886 l 5.187068,0.078 z"/><path style="color:#000;fill:url(#linearGradient2940);fill-opacity:1;fill-rule:nonzero;stroke:url(#linearGradient2942);stroke-width:.79999983;stroke-linecap:butt;stroke-linejoin:miter;stroke-miterlimit:4;stroke-opacity:1;stroke-dasharray:none;stroke-dashoffset:0;marker:none;visibility:visible;display:block;overflow:visible" id="path1432-1" d="M 18.863663,24.542429 C 18.03926,-0.43399458 39.294195,3.5133824 39.166835,16.505225 l 5.850332,0 -9.102143,10.388787 -9.545781,-10.388787 c 0,0 6.033147,0 6.033147,0 C 32.768039,7.7297334 19.028288,5.1623024 18.863663,24.542429 z"/><path id="path2177-0" d="m 22.432271,11.157558 c 3.793736,-7.3153076 16.3665,-5.1092476 16.077915,5.980231 l 5.053897,0 c 0,0 -7.65266,8.7659 -7.65266,8.7659 l -8.077176,-8.7659 c 0,0 5.165312,0 5.165312,0 0.217324,-9.2601846 -7.960844,-8.8358966 -10.567288,-5.980231 z" style="opacity:.47159089;color:#000;fill:none;stroke:url(#linearGradient1764-5);stroke-width:.79999948;stroke-linecap:butt;stroke-linejoin:miter;stroke-miterlimit:10;stroke-opacity:1;stroke-dasharray:none;stroke-dashoffset:0;marker:none;visibility:visible;display:block;overflow:visible"/><path style="opacity:.49431817;color:#000;fill:url(#radialGradient4997-6);fill-opacity:1;fill-rule:nonzero;stroke:none;stroke-width:.9999997;marker:none;visibility:visible;display:inline;overflow:visible" id="path4989-6" d="m 44.114627,16.843565 -1.587341,2.036567 c -4.328026,-1.213035 -6.30892,2.183473 -12.538956,1.385432 l -3.089029,-3.527228 5.749176,0.06622 C 32.687477,7.3274374 22.97635,7.8734444 20.324315,14.776533 23.370679,2.8653734 38.615555,4.5194004 38.927559,16.76556 l 5.187068,0.078 z"/></g></svg>