<svg xmlns="http://www.w3.org/2000/svg" xmlns:svg="http://www.w3.org/2000/svg" xmlns:xlink="http://www.w3.org/1999/xlink" id="svg249" width="48" height="48" version="1.1"><defs id="defs3"><radialGradient id="radialGradient6719" cx="605.714" cy="486.648" r="117.143" fx="605.714" fy="486.648" gradientTransform="matrix(-2.774389,0,0,1.969706,112.7623,-872.8854)" gradientUnits="userSpaceOnUse" xlink:href="#linearGradient5060"/><linearGradient id="linearGradient5060"><stop style="stop-color:black;stop-opacity:1" id="stop5062" offset="0"/><stop style="stop-color:black;stop-opacity:0" id="stop5064" offset="1"/></linearGradient><radialGradient id="radialGradient6717" cx="605.714" cy="486.648" r="117.143" fx="605.714" fy="486.648" gradientTransform="matrix(2.774389,0,0,1.969706,-1891.633,-872.8854)" gradientUnits="userSpaceOnUse" xlink:href="#linearGradient5060"/><linearGradient id="linearGradient5048"><stop style="stop-color:black;stop-opacity:0" id="stop5050" offset="0"/><stop id="stop5056" offset=".5" style="stop-color:black;stop-opacity:1"/><stop style="stop-color:black;stop-opacity:0" id="stop5052" offset="1"/></linearGradient><linearGradient id="linearGradient6715" x1="302.857" x2="302.857" y1="366.648" y2="609.505" gradientTransform="matrix(2.774389,0,0,1.969706,-1892.179,-872.8854)" gradientUnits="userSpaceOnUse" xlink:href="#linearGradient5048"/><linearGradient id="linearGradient4542"><stop style="stop-color:#000;stop-opacity:1" id="stop4544" offset="0"/><stop style="stop-color:#000;stop-opacity:0" id="stop4546" offset="1"/></linearGradient><linearGradient id="linearGradient15662"><stop id="stop15664" offset="0" style="stop-color:#fff;stop-opacity:1"/><stop id="stop15666" offset="1" style="stop-color:#f8f8f8;stop-opacity:1"/></linearGradient><radialGradient id="aigrd3" cx="20.892" cy="64.568" r="5.257" fx="20.892" fy="64.568" gradientUnits="userSpaceOnUse"><stop style="stop-color:#f0f0f0" id="stop15573" offset="0"/><stop style="stop-color:#9a9a9a;stop-opacity:1" id="stop15575" offset="1"/></radialGradient><radialGradient id="aigrd2" cx="20.892" cy="114.568" r="5.256" fx="20.892" fy="114.568" gradientUnits="userSpaceOnUse"><stop style="stop-color:#f0f0f0" id="stop15566" offset="0"/><stop style="stop-color:#9a9a9a;stop-opacity:1" id="stop15568" offset="1"/></radialGradient><linearGradient id="linearGradient269"><stop id="stop270" offset="0" style="stop-color:#a3a3a3;stop-opacity:1"/><stop id="stop271" offset="1" style="stop-color:#4c4c4c;stop-opacity:1"/></linearGradient><linearGradient id="linearGradient259"><stop id="stop260" offset="0" style="stop-color:#fafafa;stop-opacity:1"/><stop id="stop261" offset="1" style="stop-color:#bbb;stop-opacity:1"/></linearGradient><radialGradient id="radialGradient15656" cx="8.824" cy="3.756" r="37.752" fx="8.824" fy="3.756" gradientTransform="matrix(0.968273,0.000000,0.000000,1.032767,3.353553,0.646447)" gradientUnits="userSpaceOnUse" xlink:href="#linearGradient269"/><radialGradient id="radialGradient15658" cx="33.967" cy="35.737" r="86.708" fx="33.967" fy="35.737" gradientTransform="scale(0.960493,1.041132)" gradientUnits="userSpaceOnUse" xlink:href="#linearGradient259"/><radialGradient id="radialGradient15668" cx="8.144" cy="7.268" r="38.159" fx="8.144" fy="7.268" gradientTransform="matrix(0.968273,0.000000,0.000000,1.032767,3.353553,0.646447)" gradientUnits="userSpaceOnUse" xlink:href="#linearGradient15662"/><radialGradient id="radialGradient2283" cx="20.892" cy="114.568" r="5.256" fx="20.892" fy="114.568" gradientTransform="matrix(0.229703,0.000000,0.000000,0.229703,4.613529,3.979808)" gradientUnits="userSpaceOnUse" xlink:href="#aigrd2"/><radialGradient id="radialGradient2285" cx="20.892" cy="64.568" r="5.257" fx="20.892" fy="64.568" gradientTransform="matrix(0.229703,0.000000,0.000000,0.229703,4.613529,3.979808)" gradientUnits="userSpaceOnUse" xlink:href="#aigrd3"/><radialGradient id="radialGradient4548" cx="24.307" cy="42.078" r="15.822" fx="24.307" fy="42.078" gradientTransform="matrix(1.000000,0.000000,0.000000,0.284916,0.000000,30.08928)" gradientUnits="userSpaceOnUse" xlink:href="#linearGradient4542"/><radialGradient id="radialGradient2784" cx="30.324" cy="13.38" r="29.756" gradientTransform="matrix(1.5319,0,0,1.5319,-16.13,-7.1173)" gradientUnits="userSpaceOnUse"><stop id="stop2780" offset="0" stop-color="#ff0202"/><stop id="stop2782" offset="1" stop-color="#b20000"/></radialGradient><linearGradient id="linearGradient2794" x1="-.363" x2="59.148" y1="29.208" y2="29.208" gradientUnits="userSpaceOnUse"><stop id="stop2790" offset="0" stop-color="#fff"/><stop id="stop2792" offset="1" stop-color="#fff" stop-opacity="0"/></linearGradient><radialGradient id="radialGradient2802" cx="31.76" cy="22.226" r="18.624" gradientTransform="matrix(1.3165,0,0,1.3165,-10.053,-9.2803)" gradientUnits="userSpaceOnUse"><stop id="stop2798" offset="0" stop-color="#fff"/><stop id="stop2800" offset="1" stop-color="#dfdfdf"/></radialGradient><radialGradient id="radialGradient2812" cx="25.25" cy="39.75" r="17.25" gradientTransform="matrix(1,0,0,0.33333,0,26.5)" gradientUnits="userSpaceOnUse"><stop id="stop2808" offset="0"/><stop id="stop2810" offset="1" stop-opacity="0"/></radialGradient></defs><metadata id="metadata4"/><g style="display:inline" id="layer1"><rect style="color:#000;fill:url(#radialGradient15658);fill-opacity:1;fill-rule:nonzero;stroke:url(#radialGradient15656);stroke-width:1;stroke-linecap:round;stroke-linejoin:round;stroke-miterlimit:4;stroke-dashoffset:0;stroke-opacity:1;marker:none;marker-start:none;marker-mid:none;marker-end:none;visibility:visible;display:block;overflow:visible" id="rect15391" width="34.875" height="40.92" x="6.604" y="3.646" ry="1.149"/><rect style="color:#000;fill:none;fill-opacity:1;fill-rule:nonzero;stroke:url(#radialGradient15668);stroke-width:1;stroke-linecap:round;stroke-linejoin:round;stroke-miterlimit:4;stroke-dashoffset:0;stroke-opacity:1;marker:none;marker-start:none;marker-mid:none;marker-end:none;visibility:visible;display:block;overflow:visible" id="rect15660" width="32.776" height="38.946" x="7.666" y="4.584" rx=".149" ry=".149"/><g id="g2270" transform="translate(0.646447,-3.798933e-2)"><g id="g1440" transform="matrix(0.229703,0.000000,0.000000,0.229703,4.967081,4.244972)" style="fill:#fff;fill-opacity:1;fill-rule:nonzero;stroke:#000;stroke-miterlimit:4"><radialGradient id="radialGradient1442" cx="20.892" cy="114.568" r="5.256" fx="20.892" fy="114.568" gradientUnits="userSpaceOnUse"><stop style="stop-color:#f0f0f0" id="stop1444" offset="0"/><stop style="stop-color:#474747" id="stop1446" offset="1"/></radialGradient><path style="stroke:none" id="path1448" d="M 23.428000,113.07000 C 23.428000,115.04300 21.828000,116.64200 19.855000,116.64200 C 17.881000,116.64200 16.282000,115.04200 16.282000,113.07000 C 16.282000,111.09600 17.882000,109.49700 19.855000,109.49700 C 21.828000,109.49700 23.428000,111.09700 23.428000,113.07000 z"/><radialGradient id="radialGradient1450" cx="20.892" cy="64.568" r="5.257" fx="20.892" fy="64.568" gradientUnits="userSpaceOnUse"><stop style="stop-color:#f0f0f0" id="stop1452" offset="0"/><stop style="stop-color:#474747" id="stop1454" offset="1"/></radialGradient><path style="stroke:none" id="path1456" d="M 23.428000,63.070000 C 23.428000,65.043000 21.828000,66.643000 19.855000,66.643000 C 17.881000,66.643000 16.282000,65.043000 16.282000,63.070000 C 16.282000,61.096000 17.882000,59.497000 19.855000,59.497000 C 21.828000,59.497000 23.428000,61.097000 23.428000,63.070000 z"/></g><path style="fill:url(#radialGradient2283);fill-rule:nonzero;stroke:none;stroke-miterlimit:4" id="path15570" d="M 9.9950109,29.952326 C 9.9950109,30.405530 9.6274861,30.772825 9.1742821,30.772825 C 8.7208483,30.772825 8.3535532,30.405301 8.3535532,29.952326 C 8.3535532,29.498892 8.7210780,29.131597 9.1742821,29.131597 C 9.6274861,29.131597 9.9950109,29.499122 9.9950109,29.952326 z"/><path style="fill:url(#radialGradient2285);fill-rule:nonzero;stroke:none;stroke-miterlimit:4" id="path15577" d="M 9.9950109,18.467176 C 9.9950109,18.920380 9.6274861,19.287905 9.1742821,19.287905 C 8.7208483,19.287905 8.3535532,18.920380 8.3535532,18.467176 C 8.3535532,18.013742 8.7210780,17.646447 9.1742821,17.646447 C 9.6274861,17.646447 9.9950109,18.013972 9.9950109,18.467176 z"/></g><path style="fill:none;fill-opacity:.75;fill-rule:evenodd;stroke:#000;stroke-width:.98855311;stroke-linecap:butt;stroke-linejoin:miter;stroke-miterlimit:4;stroke-opacity:.017543854" id="path15672" d="M 11.505723,5.4942766 L 11.505723,43.400869"/><path style="fill:none;fill-opacity:.75;fill-rule:evenodd;stroke:#fff;stroke-width:1;stroke-linecap:butt;stroke-linejoin:miter;stroke-miterlimit:4;stroke-opacity:.20467831" id="path15674" d="M 12.500000,5.0205154 L 12.500000,43.038228"/></g><g id="layer5" style="display:inline"><g id="g2253" transform="matrix(0.909091,0.000000,0.000000,1.000000,2.363628,0.000000)"><rect style="color:#000;fill:#9b9b9b;fill-opacity:.54970759;fill-rule:nonzero;stroke:none;stroke-width:1;stroke-linecap:round;stroke-linejoin:round;stroke-miterlimit:4;stroke-dashoffset:0;stroke-opacity:.081871338;marker:none;marker-start:none;marker-mid:none;marker-end:none;visibility:visible;display:block;overflow:visible" id="rect15686" width="22" height="1" x="15" y="9" rx=".152" ry=".065"/><rect style="color:#000;fill:#9b9b9b;fill-opacity:.54970759;fill-rule:nonzero;stroke:none;stroke-width:1;stroke-linecap:round;stroke-linejoin:round;stroke-miterlimit:4;stroke-dashoffset:0;stroke-opacity:.081871338;marker:none;marker-start:none;marker-mid:none;marker-end:none;visibility:visible;display:block;overflow:visible" id="rect15688" width="22" height="1" x="15" y="11" rx=".152" ry=".065"/><rect style="color:#000;fill:#9b9b9b;fill-opacity:.54970759;fill-rule:nonzero;stroke:none;stroke-width:1;stroke-linecap:round;stroke-linejoin:round;stroke-miterlimit:4;stroke-dashoffset:0;stroke-opacity:.081871338;marker:none;marker-start:none;marker-mid:none;marker-end:none;visibility:visible;display:block;overflow:visible" id="rect15690" width="22" height="1" x="15" y="13" rx=".152" ry=".065"/><rect style="color:#000;fill:#9b9b9b;fill-opacity:.54970759;fill-rule:nonzero;stroke:none;stroke-width:1;stroke-linecap:round;stroke-linejoin:round;stroke-miterlimit:4;stroke-dashoffset:0;stroke-opacity:.081871338;marker:none;marker-start:none;marker-mid:none;marker-end:none;visibility:visible;display:block;overflow:visible" id="rect15692" width="22" height="1" x="15" y="15" rx=".152" ry=".065"/><rect style="color:#000;fill:#9b9b9b;fill-opacity:.54970759;fill-rule:nonzero;stroke:none;stroke-width:1;stroke-linecap:round;stroke-linejoin:round;stroke-miterlimit:4;stroke-dashoffset:0;stroke-opacity:.081871338;marker:none;marker-start:none;marker-mid:none;marker-end:none;visibility:visible;display:block;overflow:visible" id="rect15694" width="22" height="1" x="15" y="17" rx=".152" ry=".065"/><rect style="color:#000;fill:#9b9b9b;fill-opacity:.54970759;fill-rule:nonzero;stroke:none;stroke-width:1;stroke-linecap:round;stroke-linejoin:round;stroke-miterlimit:4;stroke-dashoffset:0;stroke-opacity:.081871338;marker:none;marker-start:none;marker-mid:none;marker-end:none;visibility:visible;display:block;overflow:visible" id="rect15696" width="22" height="1" x="15" y="19" rx=".152" ry=".065"/><rect style="color:#000;fill:#9b9b9b;fill-opacity:.54970759;fill-rule:nonzero;stroke:none;stroke-width:1;stroke-linecap:round;stroke-linejoin:round;stroke-miterlimit:4;stroke-dashoffset:0;stroke-opacity:.081871338;marker:none;marker-start:none;marker-mid:none;marker-end:none;visibility:visible;display:block;overflow:visible" id="rect15698" width="22" height="1" x="15" y="21" rx=".152" ry=".065"/><rect style="color:#000;fill:#9b9b9b;fill-opacity:.54970759;fill-rule:nonzero;stroke:none;stroke-width:1;stroke-linecap:round;stroke-linejoin:round;stroke-miterlimit:4;stroke-dashoffset:0;stroke-opacity:.081871338;marker:none;marker-start:none;marker-mid:none;marker-end:none;visibility:visible;display:block;overflow:visible" id="rect15700" width="22" height="1" x="15" y="23" rx=".152" ry=".065"/><rect style="color:#000;fill:#9b9b9b;fill-opacity:.54970759;fill-rule:nonzero;stroke:none;stroke-width:1;stroke-linecap:round;stroke-linejoin:round;stroke-miterlimit:4;stroke-dashoffset:0;stroke-opacity:.081871338;marker:none;marker-start:none;marker-mid:none;marker-end:none;visibility:visible;display:block;overflow:visible" id="rect15732" width="9.9" height="1" x="15" y="25" rx=".068" ry=".065"/><rect style="color:#000;fill:#9b9b9b;fill-opacity:.54970759;fill-rule:nonzero;stroke:none;stroke-width:1;stroke-linecap:round;stroke-linejoin:round;stroke-miterlimit:4;stroke-dashoffset:0;stroke-opacity:.081871338;marker:none;marker-start:none;marker-mid:none;marker-end:none;visibility:visible;display:block;overflow:visible" id="rect15736" width="22" height="1" x="15" y="29" rx=".152" ry=".065"/><rect style="color:#000;fill:#9b9b9b;fill-opacity:.54970759;fill-rule:nonzero;stroke:none;stroke-width:1;stroke-linecap:round;stroke-linejoin:round;stroke-miterlimit:4;stroke-dashoffset:0;stroke-opacity:.081871338;marker:none;marker-start:none;marker-mid:none;marker-end:none;visibility:visible;display:block;overflow:visible" id="rect15738" width="22" height="1" x="15" y="31" rx=".152" ry=".065"/><rect style="color:#000;fill:#9b9b9b;fill-opacity:.54970759;fill-rule:nonzero;stroke:none;stroke-width:1;stroke-linecap:round;stroke-linejoin:round;stroke-miterlimit:4;stroke-dashoffset:0;stroke-opacity:.081871338;marker:none;marker-start:none;marker-mid:none;marker-end:none;visibility:visible;display:block;overflow:visible" id="rect15740" width="22" height="1" x="15" y="33" rx=".152" ry=".065"/><rect style="color:#000;fill:#9b9b9b;fill-opacity:.54970759;fill-rule:nonzero;stroke:none;stroke-width:1;stroke-linecap:round;stroke-linejoin:round;stroke-miterlimit:4;stroke-dashoffset:0;stroke-opacity:.081871338;marker:none;marker-start:none;marker-mid:none;marker-end:none;visibility:visible;display:block;overflow:visible" id="rect15742" width="22" height="1" x="15" y="35" rx=".152" ry=".065"/><rect style="color:#000;fill:#9b9b9b;fill-opacity:.54970759;fill-rule:nonzero;stroke:none;stroke-width:1;stroke-linecap:round;stroke-linejoin:round;stroke-miterlimit:4;stroke-dashoffset:0;stroke-opacity:.081871338;marker:none;marker-start:none;marker-mid:none;marker-end:none;visibility:visible;display:block;overflow:visible" id="rect15744" width="15.4" height="1" x="15" y="37" rx=".106" ry=".065"/></g></g><g id="layer6"><g style="display:inline" id="g6707" transform="matrix(2.105461e-2,0,0,2.086758e-2,42.85172,41.1536)"><rect style="opacity:.40206185;color:#000;fill:url(#linearGradient6715);fill-opacity:1;fill-rule:nonzero;stroke:none;stroke-width:1;stroke-linecap:round;stroke-linejoin:miter;marker:none;marker-start:none;marker-mid:none;marker-end:none;stroke-miterlimit:4;stroke-dasharray:none;stroke-dashoffset:0;stroke-opacity:1;visibility:visible;display:inline;overflow:visible" id="rect6709" width="1339.633" height="478.357" x="-1559.252" y="-150.697"/><path style="opacity:.40206185;color:#000;fill:url(#radialGradient6717);fill-opacity:1;fill-rule:nonzero;stroke:none;stroke-width:1;stroke-linecap:round;stroke-linejoin:miter;marker:none;marker-start:none;marker-mid:none;marker-end:none;stroke-miterlimit:4;stroke-dasharray:none;stroke-dashoffset:0;stroke-opacity:1;visibility:visible;display:inline;overflow:visible" id="path6711" d="M -219.61876,-150.68038 C -219.61876,-150.68038 -219.61876,327.65041 -219.61876,327.65041 C -76.744594,328.55086 125.78146,220.48075 125.78138,88.454235 C 125.78138,-43.572302 -33.655436,-150.68036 -219.61876,-150.68038 z"/><path id="path6713" d="M -1559.2523,-150.68038 C -1559.2523,-150.68038 -1559.2523,327.65041 -1559.2523,327.65041 C -1702.1265,328.55086 -1904.6525,220.48075 -1904.6525,88.454235 C -1904.6525,-43.572302 -1745.2157,-150.68036 -1559.2523,-150.68038 z" style="opacity:.40206185;color:#000;fill:url(#radialGradient6719);fill-opacity:1;fill-rule:nonzero;stroke:none;stroke-width:1;stroke-linecap:round;stroke-linejoin:miter;marker:none;marker-start:none;marker-mid:none;marker-end:none;stroke-miterlimit:4;stroke-dasharray:none;stroke-dashoffset:0;stroke-opacity:1;visibility:visible;display:inline;overflow:visible"/></g><g id="g4301" transform="matrix(0.61465412,0,0,0.61465412,18.261363,15.950716)"><path style="color:#000;opacity:.64433001;fill:url(#radialGradient2812)" id="path2804" d="m 42.5,39.75 a 17.25,5.75 0 1 1 -34.5,0 17.25,5.75 0 1 1 34.5,0 z" transform="matrix(1.1594,0,0,1.5072,-3.7754,-22.163)"/><path id="path907" d="m 58.404,29.208 a 29.011,29.011 0 1 1 -58.022,0 29.011,29.011 0 1 1 58.022,0 z" transform="matrix(0.67131,0,0,0.67131,5.2224,3.4184)" style="fill:url(#radialGradient2784);fill-rule:evenodd;stroke:#a40000;stroke-width:1.48959994"/><path id="path2159" d="m 50.385,29.319 a 18.6245,18.6245 0 1 1 -37.249,0 18.6245,18.6245 0 1 1 37.249,0 z" transform="matrix(0.78096,0,0,0.78096,0.17289,-0.14768)" style="fill:url(#radialGradient2802);fill-rule:evenodd"/><path id="text1299" d="m 23.271,31.644 c -3e-6,-0.50484 0.18405,-0.94657 0.55217,-1.3252 0.37862,-0.38914 0.82036,-0.58372 1.3252,-0.58372 0.51535,3e-6 0.96234,0.18932 1.341,0.56794 0.37862,0.37863 0.56794,0.82562 0.56794,1.341 -9e-6,0.50484 -0.19458,0.94657 -0.58372,1.3252 -0.37863,0.36811 -0.82037,0.55216 -1.3252,0.55216 -0.48381,0 -0.92028,-0.18931 -1.3094,-0.56794 -0.37863,-0.38915 -0.56795,-0.82562 -0.56794,-1.3094" style="fill:#a63434"/><path id="path1591" d="m 22.991,14.858 c -0.05384,-0.2524 -0.09421,-0.51008 -0.12112,-0.77303 -0.01347,-0.26292 -0.02019,-0.52585 -0.02019,-0.78881 -4e-6,-0.69413 0.19514,-1.22 0.58544,-1.5776 0.40374,-0.36809 0.98245,-0.55214 1.7361,-0.55216 0.78057,2e-5 1.3727,0.17882 1.7765,0.53639 0.4172,0.35762 0.6258,0.88875 0.62581,1.5934 -10e-6,0.26296 -0.01347,0.52589 -0.04037,0.78881 -0.01347,0.26296 -0.04038,0.51537 -0.08075,0.75726 l -1.9582,12.447 -0.82768,0 -1.6756,-12.432" style="fill:#a63434"/><path id="path2786" d="m 58.404,29.208 a 29.011,29.011 0 1 1 -58.022,0 29.011,29.011 0 1 1 58.022,0 z" transform="matrix(0.6293,0,0,0.6293,6.4571,4.6454)" style="opacity:.37629;fill:none;stroke:url(#linearGradient2794);stroke-width:1.5891"/></g></g></svg>