<svg xmlns="http://www.w3.org/2000/svg" xmlns:cc="http://web.resource.org/cc/" xmlns:svg="http://www.w3.org/2000/svg" xmlns:xlink="http://www.w3.org/1999/xlink" id="svg249" width="48" height="48"><defs id="defs3"><linearGradient id="linearGradient4542"><stop style="stop-color:#000;stop-opacity:1" id="stop4544" offset="0"/><stop style="stop-color:#000;stop-opacity:0" id="stop4546" offset="1"/></linearGradient><linearGradient id="linearGradient15662"><stop id="stop15664" offset="0" style="stop-color:#fff;stop-opacity:1"/><stop id="stop15666" offset="1" style="stop-color:#f8f8f8;stop-opacity:1"/></linearGradient><radialGradient id="aigrd3" cx="20.892" cy="64.568" r="5.257" fx="20.892" fy="64.568" gradientUnits="userSpaceOnUse"><stop style="stop-color:#f0f0f0" id="stop15573" offset="0"/><stop style="stop-color:#9a9a9a;stop-opacity:1" id="stop15575" offset="1"/></radialGradient><radialGradient id="aigrd2" cx="20.892" cy="114.568" r="5.256" fx="20.892" fy="114.568" gradientUnits="userSpaceOnUse"><stop style="stop-color:#f0f0f0" id="stop15566" offset="0"/><stop style="stop-color:#9a9a9a;stop-opacity:1" id="stop15568" offset="1"/></radialGradient><linearGradient id="linearGradient269"><stop id="stop270" offset="0" style="stop-color:#a3a3a3;stop-opacity:1"/><stop id="stop271" offset="1" style="stop-color:#4c4c4c;stop-opacity:1"/></linearGradient><linearGradient id="linearGradient259"><stop id="stop260" offset="0" style="stop-color:#fafafa;stop-opacity:1"/><stop id="stop261" offset="1" style="stop-color:#bbb;stop-opacity:1"/></linearGradient><radialGradient id="radialGradient15656" cx="8.824" cy="3.756" r="37.752" fx="8.824" fy="3.756" gradientTransform="matrix(0.968273,0.000000,0.000000,1.032767,3.353553,0.646447)" gradientUnits="userSpaceOnUse" xlink:href="#linearGradient269"/><radialGradient id="radialGradient15658" cx="33.967" cy="35.737" r="86.708" fx="33.967" fy="35.737" gradientTransform="scale(0.960493,1.041132)" gradientUnits="userSpaceOnUse" xlink:href="#linearGradient259"/><radialGradient id="radialGradient15668" cx="8.144" cy="7.268" r="38.159" fx="8.144" fy="7.268" gradientTransform="matrix(0.968273,0.000000,0.000000,1.032767,3.353553,0.646447)" gradientUnits="userSpaceOnUse" xlink:href="#linearGradient15662"/><radialGradient id="radialGradient4548" cx="24.307" cy="42.078" r="15.822" fx="24.307" fy="42.078" gradientTransform="matrix(1.000000,0.000000,0.000000,0.284916,0.000000,30.08928)" gradientUnits="userSpaceOnUse" xlink:href="#linearGradient4542"/><radialGradient id="aigrd8" cx="37.636" cy="-29.7" r="12.825" fx="37.636" fy="-29.7" gradientTransform="matrix(0 1 -1 0 -17.6563 -25.5215)" gradientUnits="userSpaceOnUse"><stop style="stop-color:#210101;stop-opacity:1" id="stop2061" offset="0"/><stop id="stop3650" offset=".5" style="stop-color:#ff747e;stop-opacity:1"/><stop style="stop-color:#830000;stop-opacity:1" id="stop2079" offset="1"/></radialGradient><radialGradient id="aigrd5" cx="11.503" cy="11.345" r="9.299" fx="11.503" fy="11.345" gradientUnits="userSpaceOnUse"><stop style="stop-color:#c5c5c5" id="stop1990" offset="0"/><stop style="stop-color:#c8c8c8" id="stop1992" offset=".237"/><stop style="stop-color:#d1d1d1" id="stop1994" offset=".408"/><stop style="stop-color:#e1e1e1" id="stop1996" offset=".559"/><stop style="stop-color:#f7f7f7" id="stop1998" offset=".696"/><stop style="stop-color:#fff" id="stop2000" offset=".736"/><stop style="stop-color:#fcfcfc" id="stop2002" offset=".819"/><stop style="stop-color:#f2f2f2" id="stop2004" offset=".881"/><stop style="stop-color:#e2e2e2" id="stop2006" offset=".936"/><stop style="stop-color:#ccc" id="stop2008" offset=".988"/><stop style="stop-color:#c5c5c5" id="stop2010" offset="1"/></radialGradient><radialGradient id="aigrd4" cx="18.152" cy="5.653" r="3.55" fx="18.152" fy="5.653" gradientUnits="userSpaceOnUse"><stop style="stop-color:#3c3c3c" id="stop1957" offset="0"/><stop style="stop-color:#3e3e3e" id="stop1959" offset=".363"/><stop style="stop-color:#454545" id="stop1961" offset=".494"/><stop style="stop-color:#505050" id="stop1963" offset=".588"/><stop style="stop-color:#616161" id="stop1965" offset=".663"/><stop style="stop-color:#777" id="stop1967" offset=".728"/><stop style="stop-color:#939393" id="stop1969" offset=".785"/><stop style="stop-color:#b2b2b2" id="stop1971" offset=".835"/><stop style="stop-color:#d2d2d2" id="stop1973" offset=".876"/><stop style="stop-color:#cecece" id="stop1975" offset=".9"/><stop style="stop-color:#c3c3c3" id="stop1977" offset=".922"/><stop style="stop-color:#afafaf" id="stop1979" offset=".945"/><stop style="stop-color:#949494" id="stop1981" offset=".967"/><stop style="stop-color:#717171" id="stop1983" offset=".988"/><stop style="stop-color:#5b5b5b" id="stop1985" offset="1"/></radialGradient><radialGradient id="aigrd1" cx="18.152" cy="18.329" r="3.55" fx="18.152" fy="18.329" gradientUnits="userSpaceOnUse"><stop style="stop-color:#3c3c3c" id="stop1852" offset="0"/><stop style="stop-color:#3e3e3e" id="stop1854" offset=".363"/><stop style="stop-color:#454545" id="stop1856" offset=".494"/><stop style="stop-color:#505050" id="stop1858" offset=".588"/><stop style="stop-color:#616161" id="stop1860" offset=".663"/><stop style="stop-color:#777" id="stop1862" offset=".728"/><stop style="stop-color:#939393" id="stop1864" offset=".785"/><stop style="stop-color:#b2b2b2" id="stop1866" offset=".835"/><stop style="stop-color:#d2d2d2" id="stop1868" offset=".876"/><stop style="stop-color:#cecece" id="stop1870" offset=".9"/><stop style="stop-color:#c3c3c3" id="stop1872" offset=".922"/><stop style="stop-color:#afafaf" id="stop1874" offset=".945"/><stop style="stop-color:#949494" id="stop1876" offset=".967"/><stop style="stop-color:#717171" id="stop1878" offset=".988"/><stop style="stop-color:#5b5b5b" id="stop1880" offset="1"/></radialGradient><linearGradient id="linearGradient3640"><stop id="stop3642" offset="0" style="stop-color:#fff;stop-opacity:1"/><stop id="stop3644" offset="1" style="stop-color:#fff;stop-opacity:0"/></linearGradient><radialGradient id="radialGradient5534" cx="18.152" cy="18.329" r="3.55" fx="18.152" fy="18.329" gradientTransform="matrix(2.132196,0.000000,0.000000,2.132196,-97.11122,15.26563)" gradientUnits="userSpaceOnUse" xlink:href="#aigrd1"/><radialGradient id="radialGradient5536" cx="5.733" cy="18.329" r="3.55" fx="5.733" fy="18.329" gradientTransform="matrix(2.132196,0.000000,0.000000,2.132196,-91.44192,15.26563)" gradientUnits="userSpaceOnUse" xlink:href="#aigrd2"/><radialGradient id="radialGradient5538" cx="5.733" cy="5.653" r="3.55" fx="5.733" fy="5.653" gradientTransform="matrix(2.132196,0.000000,0.000000,2.132196,-91.44192,20.93492)" gradientUnits="userSpaceOnUse" xlink:href="#aigrd3"/><radialGradient id="radialGradient5540" cx="18.152" cy="5.653" r="3.55" fx="18.152" fy="5.653" gradientTransform="matrix(2.132196,0.000000,0.000000,2.132196,-97.11122,20.93492)" gradientUnits="userSpaceOnUse" xlink:href="#aigrd4"/><radialGradient id="radialGradient5542" cx="11.586" cy="11.677" r="9.299" fx="11.586" fy="11.677" gradientTransform="matrix(2.132196,0.000000,0.000000,2.132196,-94.27657,18.10027)" gradientUnits="userSpaceOnUse" xlink:href="#aigrd5"/><radialGradient id="radialGradient5544" cx="-30.105" cy="-14.618" r="12.822" fx="-30.105" fy="-14.618" gradientTransform="matrix(0.000000,-1.995477,1.995477,0.000000,-40.29889,-16.87378)" gradientUnits="userSpaceOnUse" xlink:href="#aigrd8"/><radialGradient id="radialGradient5546" cx="-1.365" cy="-56.636" r="12.826" fx="-1.365" fy="-56.636" gradientTransform="matrix(-2.020236,0.000000,0.000000,-2.018756,-72.22632,-71.13473)" gradientUnits="userSpaceOnUse" xlink:href="#aigrd8"/><radialGradient id="radialGradient5548" cx="37.639" cy="-28.883" r="12.825" fx="37.639" fy="-28.883" gradientTransform="matrix(0.000000,1.975946,-1.975946,0.000000,-126.5395,-31.17259)" gradientUnits="userSpaceOnUse" xlink:href="#aigrd8"/><radialGradient id="radialGradient5550" cx="11.925" cy="12.071" r="12.825" fx="11.925" fy="12.071" gradientTransform="matrix(1.995477,0.000000,0.000000,1.995477,-93.26485,19.11199)" gradientUnits="userSpaceOnUse" xlink:href="#aigrd8"/><linearGradient id="linearGradient5552" x1="15.738" x2="51.313" y1="9.139" y2="64.278" gradientTransform="translate(-92.27870,19.84228)" gradientUnits="userSpaceOnUse" xlink:href="#linearGradient3640"/><linearGradient id="linearGradient5554" x1="27.426" x2="15.76" y1="30.841" y2="13.171" gradientTransform="translate(-92.27870,19.84228)" gradientUnits="userSpaceOnUse" xlink:href="#linearGradient3640"/></defs><metadata id="metadata4"/><g id="layer6"><path style="opacity:.7836257;color:#000;fill:url(#radialGradient4548);fill-opacity:1;fill-rule:evenodd;stroke:none;stroke-width:2;stroke-linecap:round;stroke-linejoin:round;marker:none;marker-start:none;marker-mid:none;marker-end:none;stroke-miterlimit:4;stroke-dasharray:none;stroke-dashoffset:0;stroke-opacity:1;visibility:visible;display:inline;overflow:visible" id="path3667" d="M 40.128309 42.07798 A 15.821514 4.5078058 0 1 1 8.485281,42.07798 A 15.821514 4.5078058 0 1 1 40.128309 42.07798 z" transform="translate(0.000000,0.707108)"/></g><g style="display:inline" id="layer1"><rect style="color:#000;fill:url(#radialGradient15658);fill-opacity:1;fill-rule:nonzero;stroke:url(#radialGradient15656);stroke-width:1;stroke-linecap:round;stroke-linejoin:round;stroke-miterlimit:4;stroke-dashoffset:0;stroke-opacity:1;marker:none;marker-start:none;marker-mid:none;marker-end:none;visibility:visible;display:block;overflow:visible" id="rect15391" width="34.875" height="40.92" x="6.604" y="3.646" ry="1.149"/><rect style="color:#000;fill:none;fill-opacity:1;fill-rule:nonzero;stroke:url(#radialGradient15668);stroke-width:1;stroke-linecap:round;stroke-linejoin:round;stroke-miterlimit:4;stroke-dashoffset:0;stroke-opacity:1;marker:none;marker-start:none;marker-mid:none;marker-end:none;visibility:visible;display:block;overflow:visible" id="rect15660" width="32.776" height="38.946" x="7.666" y="4.584" rx=".149" ry=".149"/></g><g id="layer5" style="display:inline"><g id="g2253" transform="matrix(0.909091,0.000000,0.000000,1.000000,2.363628,0.000000)"><rect style="color:#000;fill:#9b9b9b;fill-opacity:.54970759;fill-rule:nonzero;stroke:none;stroke-width:1;stroke-linecap:round;stroke-linejoin:round;stroke-miterlimit:4;stroke-dashoffset:0;stroke-opacity:.081871338;marker:none;marker-start:none;marker-mid:none;marker-end:none;visibility:visible;display:block;overflow:visible" id="rect15686" width="22" height="1" x="15" y="9" rx=".152" ry=".065"/><rect style="color:#000;fill:#9b9b9b;fill-opacity:.54970759;fill-rule:nonzero;stroke:none;stroke-width:1;stroke-linecap:round;stroke-linejoin:round;stroke-miterlimit:4;stroke-dashoffset:0;stroke-opacity:.081871338;marker:none;marker-start:none;marker-mid:none;marker-end:none;visibility:visible;display:block;overflow:visible" id="rect15690" width="22" height="1" x="15" y="13" rx=".152" ry=".065"/><rect style="color:#000;fill:#9b9b9b;fill-opacity:.54970759;fill-rule:nonzero;stroke:none;stroke-width:1;stroke-linecap:round;stroke-linejoin:round;stroke-miterlimit:4;stroke-dashoffset:0;stroke-opacity:.081871338;marker:none;marker-start:none;marker-mid:none;marker-end:none;visibility:visible;display:block;overflow:visible" id="rect15694" width="22" height="1" x="15" y="17" rx=".152" ry=".065"/><rect style="color:#000;fill:#9b9b9b;fill-opacity:.54970759;fill-rule:nonzero;stroke:none;stroke-width:1;stroke-linecap:round;stroke-linejoin:round;stroke-miterlimit:4;stroke-dashoffset:0;stroke-opacity:.081871338;marker:none;marker-start:none;marker-mid:none;marker-end:none;visibility:visible;display:block;overflow:visible" id="rect15698" width="22" height="1" x="15" y="21" rx=".152" ry=".065"/><rect style="color:#000;fill:#9b9b9b;fill-opacity:.54970759;fill-rule:nonzero;stroke:none;stroke-width:1;stroke-linecap:round;stroke-linejoin:round;stroke-miterlimit:4;stroke-dashoffset:0;stroke-opacity:.081871338;marker:none;marker-start:none;marker-mid:none;marker-end:none;visibility:visible;display:block;overflow:visible" id="rect15732" width="9.9" height="1" x="15" y="25" rx=".068" ry=".065"/></g><g id="g5499" transform="matrix(0.857951,0.000000,0.000000,0.857951,89.46235,-7.004529)"><path style="fill:url(#radialGradient5534);fill-rule:nonzero;stroke:none;stroke-width:.85650003;stroke-miterlimit:4" id="path1882" d="M -58.092025,46.608913 C -62.356416,46.608913 -65.98115,50.233647 -65.98115,54.498038 C -65.98115,58.762431 -62.356416,62.387164 -58.092025,62.387164 C -53.827633,62.387164 -50.202899,58.762431 -50.202899,54.498038 C -50.202899,50.233647 -53.827633,46.608913 -58.092025,46.608913 z M -58.092025,60.681408 C -61.503539,60.681408 -64.275393,57.909553 -64.275393,54.498038 C -64.275393,51.086525 -61.503539,48.31467 -58.092025,48.31467 C -54.68051,48.31467 -51.908656,51.086525 -51.908656,54.498038 C -51.908656,57.909553 -54.68051,60.681408 -58.092025,60.681408 z"/><path style="fill:url(#radialGradient5536);fill-rule:nonzero;stroke:none;stroke-width:.85650003;stroke-miterlimit:4" id="path1917" d="M -78.861965,46.608913 C -83.126357,46.608913 -86.751091,50.233647 -86.751091,54.498038 C -86.751091,58.762431 -83.126357,62.387164 -78.861965,62.387164 C -74.597572,62.387164 -70.972839,58.762431 -70.972839,54.498038 C -70.972839,50.233647 -74.597572,46.608913 -78.861965,46.608913 L -78.861965,46.608913 z M -78.861965,60.681408 C -82.273479,60.681408 -85.045334,57.909553 -85.045334,54.498038 C -85.045334,51.086525 -82.273479,48.31467 -78.861965,48.31467 C -75.450451,48.31467 -72.678596,51.086525 -72.678596,54.498038 C -72.678596,57.909553 -75.450451,60.681408 -78.861965,60.681408 L -78.861965,60.681408 z"/><path style="fill:url(#radialGradient5538);fill-rule:nonzero;stroke:none;stroke-width:.85650003;stroke-miterlimit:4" id="path1952" d="M -78.861965,25.199314 C -83.126357,25.199314 -86.751091,28.824047 -86.751091,33.08844 C -86.751091,37.352831 -83.126357,40.977565 -78.861965,40.977565 C -74.597572,40.977565 -70.972839,37.352831 -70.972839,33.08844 C -70.972839,28.824047 -74.597572,25.199314 -78.861965,25.199314 L -78.861965,25.199314 z M -78.861965,39.271808 C -82.273479,39.271808 -85.045334,36.499953 -85.045334,33.08844 C -85.045334,29.676926 -82.273479,26.905071 -78.861965,26.905071 C -75.450451,26.905071 -72.678596,29.676926 -72.678596,33.08844 C -72.678596,36.499953 -75.66367,39.271808 -78.861965,39.271808 z"/><path style="fill:url(#radialGradient5540);fill-rule:nonzero;stroke:none;stroke-width:.85650003;stroke-miterlimit:4" id="path1987" d="M -58.092025,41.190784 C -53.827633,41.190784 -50.202899,37.566052 -50.202899,33.301659 C -50.202899,29.037267 -53.827633,25.412533 -58.092025,25.412533 C -62.356416,25.412533 -65.98115,29.037267 -65.98115,33.301659 C -65.98115,37.566052 -62.356416,41.190784 -58.092025,41.190784 z M -58.092025,27.11829 C -54.68051,27.11829 -51.908656,29.890145 -51.908656,33.301659 C -51.908656,36.713173 -54.68051,39.485028 -58.092025,39.485028 C -61.503539,39.485028 -64.275393,36.713173 -64.275393,33.301659 C -64.275393,29.890145 -61.503539,27.11829 -58.092025,27.11829 L -58.092025,27.11829 z"/><path style="fill:url(#radialGradient5542);fill-rule:nonzero;stroke:#606060;stroke-width:.99830979;stroke-miterlimit:4;stroke-opacity:1" id="path2012" d="M -87.453541,43.899849 C -87.453541,54.34761 -78.924756,62.876395 -68.476995,62.876395 C -58.029234,62.876395 -49.500449,54.34761 -49.500449,43.899849 C -49.500449,33.452087 -58.029234,24.923303 -68.476995,24.923303 C -78.924756,24.923303 -87.453541,33.452087 -87.453541,43.899849 L -87.453541,43.899849 z M -75.939682,43.899849 C -75.939682,39.848676 -72.528167,36.437162 -68.476995,36.437162 C -64.425823,36.437162 -61.014308,39.848676 -61.014308,43.899849 C -61.014308,47.951021 -64.425823,51.362535 -68.476995,51.362535 C -72.528167,51.362535 -75.939682,47.951021 -75.939682,43.899849 z"/><path style="fill:url(#radialGradient5544);fill-opacity:1;fill-rule:nonzero;stroke:none;stroke-width:.85650003;stroke-miterlimit:4" id="path2033" d="M -84.883844,52.723884 L -75.536351,47.336095 C -74.538612,49.132025 -73.802921,49.773966 -72.144039,50.822157 L -76.702387,60.506246 C -79.695604,59.30896 -83.686558,55.318005 -84.883844,52.723884 L -84.883844,52.723884 z"/><path style="fill:url(#radialGradient5546);fill-opacity:1;fill-rule:nonzero;stroke:none;stroke-width:.85650003;stroke-miterlimit:4" id="path2058" d="M -59.511565,60.324218 L -64.93495,50.898568 C -63.304238,49.98294 -62.464893,49.112937 -61.469299,47.435433 L -51.632647,52.04732 C -52.844788,55.075455 -56.885259,59.112966 -59.511565,60.324218 L -59.511565,60.324218 z"/><path style="fill:url(#radialGradient5548);fill-rule:nonzero;stroke:none;stroke-width:.85650003;stroke-miterlimit:4" id="path2081" d="M -52.132645,35.064095 L -61.419592,40.399149 C -62.438815,38.683298 -63.291694,37.955419 -64.7787,37.04004 L -60.234024,27.357905 C -57.270105,28.543473 -53.318213,32.29777 -52.132645,35.064095 z"/><path style="fill:url(#radialGradient5550);fill-opacity:1;fill-rule:nonzero;stroke:none;stroke-width:.85650003;stroke-miterlimit:4" id="path2098" d="M -77.30103,27.493 L -71.913242,36.871743 C -73.709171,37.869482 -74.507362,38.605173 -75.399303,40.232805 L -85.083392,35.674457 C -83.886106,32.68124 -80.094699,28.690286 -77.30103,27.493 z"/><path id="path3636" d="M -86.476208,43.899847 C -86.476208,53.809524 -78.386675,61.899058 -68.476997,61.899058 C -58.567319,61.899058 -50.477785,53.809524 -50.477785,43.899847 C -50.477785,33.990168 -58.567319,25.900636 -68.476997,25.900636 C -78.386675,25.900636 -86.476208,33.990168 -86.476208,43.899847 L -86.476208,43.899847 z" style="fill:none;fill-rule:nonzero;stroke:url(#linearGradient5552);stroke-width:1.16556895;stroke-miterlimit:4;stroke-opacity:1"/><path style="color:#000;fill:none;fill-opacity:1;fill-rule:nonzero;stroke:url(#linearGradient5554);stroke-width:1.16556895;stroke-linecap:butt;stroke-linejoin:miter;marker:none;marker-start:none;marker-mid:none;marker-end:none;stroke-miterlimit:4;stroke-dashoffset:0;stroke-opacity:1;visibility:visible;display:inline;overflow:visible" id="path3638" d="M -76.812037,43.899853 C -76.812037,48.488813 -73.065946,52.234903 -68.476987,52.234903 C -63.888027,52.234903 -60.141936,48.488813 -60.141936,43.899853 C -60.141936,39.310893 -63.888027,35.564803 -68.476987,35.564803 C -73.065946,35.564803 -76.812037,39.310893 -76.812037,43.899853 L -76.812037,43.899853 z"/></g></g></svg>