<svg xmlns="http://www.w3.org/2000/svg" xmlns:svg="http://www.w3.org/2000/svg" xmlns:xlink="http://www.w3.org/1999/xlink" id="svg249" width="48" height="48"><defs id="defs3"><filter id="filter3268" width="1.177" height="1.767" x="-.089" y="-.384"><feGaussianBlur id="feGaussianBlur3270" stdDeviation="1.598"/></filter><linearGradient id="linearGradient3244"><stop style="stop-color:#000;stop-opacity:0" id="stop3246" offset="0"/><stop id="stop3274" offset=".081" style="stop-color:#000;stop-opacity:0"/><stop style="stop-color:#000;stop-opacity:.24705882" id="stop3276" offset=".615"/><stop id="stop3272" offset=".749" style="stop-color:#000;stop-opacity:.49803922"/><stop style="stop-color:#000;stop-opacity:1" id="stop3248" offset="1"/></linearGradient><linearGradient id="linearGradient3250" x1="3.5" x2="46.779" y1="35.743" y2="45.743" gradientUnits="userSpaceOnUse" xlink:href="#linearGradient3244"/><linearGradient id="linearGradient23434"><stop style="stop-color:#888a85;stop-opacity:1" id="stop23436" offset="0"/><stop style="stop-color:#babdb6;stop-opacity:1" id="stop23438" offset="1"/></linearGradient><linearGradient id="linearGradient19914"><stop style="stop-color:#000;stop-opacity:1" id="stop19916" offset="0"/><stop style="stop-color:#000;stop-opacity:0" id="stop19918" offset="1"/></linearGradient><linearGradient id="linearGradient19900"><stop style="stop-color:#888a85" id="stop19902" offset="0"/><stop style="stop-color:#d3d7cf" id="stop19904" offset="1"/></linearGradient><linearGradient id="linearGradient15493"><stop style="stop-color:#eeeeec;stop-opacity:1" id="stop15495" offset="0"/><stop style="stop-color:#fff;stop-opacity:1" id="stop15497" offset="1"/></linearGradient><linearGradient id="linearGradient11102"><stop style="stop-color:#fff;stop-opacity:1" id="stop11104" offset="0"/><stop style="stop-color:#fff;stop-opacity:0" id="stop11106" offset="1"/></linearGradient><linearGradient id="linearGradient4952"><stop style="stop-color:#fff;stop-opacity:1" id="stop4954" offset="0"/><stop style="stop-color:#fff;stop-opacity:0" id="stop4956" offset="1"/></linearGradient><linearGradient id="linearGradient4931"><stop style="stop-color:#babdb6;stop-opacity:1" id="stop4933" offset="0"/><stop style="stop-color:#888a85" id="stop4935" offset="1"/></linearGradient><linearGradient id="linearGradient4919"><stop style="stop-color:#429eff;stop-opacity:1" id="stop4921" offset="0"/><stop style="stop-color:#0044a7;stop-opacity:1" id="stop4923" offset="1"/></linearGradient><linearGradient id="linearGradient2980"><stop style="stop-color:#000;stop-opacity:1" id="stop2982" offset="0"/><stop style="stop-color:#000;stop-opacity:0" id="stop2984" offset="1"/></linearGradient><linearGradient id="linearGradient2609"><stop id="stop2611" offset="0" style="stop-color:#fff;stop-opacity:1"/><stop id="stop2613" offset="1" style="stop-color:#eeeeec"/></linearGradient><linearGradient id="linearGradient2617"><stop id="stop2619" offset="0" style="stop-color:#fbfbfa;stop-opacity:1"/><stop id="stop2621" offset="1" style="stop-color:#d3d7cf"/></linearGradient><linearGradient id="linearGradient2690"><stop id="stop2692" offset="0" style="stop-color:#2e3436"/><stop id="stop2694" offset="1" style="stop-color:#555753"/></linearGradient><linearGradient id="linearGradient2698"><stop id="stop2700" offset="0" style="stop-color:#555753"/><stop style="stop-color:#a3a5a2;stop-opacity:1" id="stop2706" offset=".702"/><stop id="stop2702" offset="1" style="stop-color:#888a85"/></linearGradient><radialGradient id="radialGradient1409" cx="45.095" cy="-2.694" r="10.498" fx="45.095" fy="-2.694" gradientTransform="matrix(-3.294293e-16,1.143443,-1.247217,-1.248581e-6,41.735,-54.25682)" gradientUnits="userSpaceOnUse" xlink:href="#linearGradient2609"/><radialGradient id="radialGradient1411" cx="59.787" cy="10.902" r="10.556" fx="59.787" fy="10.902" gradientTransform="matrix(4.928248e-11,-1.686609,1.66336,-1.770202e-15,41.65431,111.7396)" gradientUnits="userSpaceOnUse" xlink:href="#linearGradient2617"/><linearGradient id="linearGradient1421" x1="81.332" x2="82.92" y1="55.107" y2="53.511" gradientUnits="userSpaceOnUse" xlink:href="#linearGradient2698"/><linearGradient id="linearGradient1423" x1="81.096" x2="83.629" y1="57.148" y2="54.615" gradientUnits="userSpaceOnUse" xlink:href="#linearGradient2690"/><radialGradient id="radialGradient4925" cx="17.062" cy="28.851" r="13.5" fx="17.062" fy="28.851" gradientTransform="matrix(1.459545,-9.027299e-15,-5.118666e-17,1.345339,-7.403138,-10.82184)" gradientUnits="userSpaceOnUse" xlink:href="#linearGradient4919"/><linearGradient id="linearGradient4937" x1="54.113" x2="50.08" y1="12.847" y2="-3.881" gradientUnits="userSpaceOnUse" xlink:href="#linearGradient4931"/><radialGradient id="radialGradient4960" cx="16.83" cy="24.744" r="16.925" fx="16.83" fy="24.744" gradientTransform="matrix(2.231289,-0.597872,0.530253,1.979013,-30.74857,-16.49764)" gradientUnits="userSpaceOnUse" xlink:href="#linearGradient4952"/><radialGradient id="radialGradient11108" cx="8.04" cy="9.528" r="9.813" fx="8.04" fy="9.528" gradientTransform="matrix(0.946826,-1.897043e-16,1.897043e-16,0.946826,0.469351,0.499261)" gradientUnits="userSpaceOnUse" xlink:href="#linearGradient11102"/><linearGradient id="linearGradient17263" x1="19" x2="19.656" y1="14.875" y2="29" gradientTransform="translate(2,-1)" gradientUnits="userSpaceOnUse" xlink:href="#linearGradient15493"/><linearGradient id="linearGradient19906" x1="40.25" x2="43.063" y1="41" y2="38.435" gradientTransform="translate(-1,0)" gradientUnits="userSpaceOnUse" xlink:href="#linearGradient19900"/><linearGradient id="linearGradient19920" x1="33.985" x2="37.211" y1="32.046" y2="35.272" gradientTransform="translate(-1,0)" gradientUnits="userSpaceOnUse" xlink:href="#linearGradient19914"/><radialGradient id="radialGradient23426" cx="28.284" cy="30.146" r="13.258" fx="28.284" fy="30.146" gradientTransform="matrix(1,0,0,0.34,1.362626e-15,19.89607)" gradientUnits="userSpaceOnUse" xlink:href="#linearGradient2980"/><radialGradient id="radialGradient23432" cx="28.284" cy="30.146" r="13.258" fx="28.284" fy="30.146" gradientTransform="matrix(1,-4.196543e-16,-3.619011e-17,0.34,1.860387e-15,19.89607)" gradientUnits="userSpaceOnUse" xlink:href="#linearGradient2980"/><linearGradient id="linearGradient23440" x1="55.878" x2="52.5" y1="12.472" y2="-4.621" gradientUnits="userSpaceOnUse" xlink:href="#linearGradient23434"/></defs><metadata id="metadata4"/><g id="layer6"><path style="display:inline;opacity:.59999999999999998;fill:url(#linearGradient3250);fill-opacity:1;fill-rule:nonzero;stroke:none;stroke-width:.67653470999999998;stroke-linecap:round;stroke-linejoin:round;marker:none;marker-start:none;marker-mid:none;marker-end:none;stroke-miterlimit:4;stroke-dashoffset:0;stroke-opacity:1;visibility:visible;overflow:visible;filter:url(#filter3268)" id="path2462" d="M 21,35.742942 C 11.34,35.742942 3.5,37.555955 3.5,39.789845 C 3.5,42.023736 11.34,43.836748 21,43.836748 C 25.496436,43.836748 29.586827,43.441342 32.6875,42.796116 L 33.5,43.742802 C 33.525278,43.764 33.586841,43.785509 33.65625,43.800615 L 41.625,45.657855 C 41.981813,45.740449 42.507656,45.759155 43.15625,45.730121 C 43.804844,45.701087 44.567815,45.60604 45.375,45.419377 C 46.175523,45.234255 46.580812,45.069505 46.71875,44.92074 C 46.856687,44.771976 46.758027,44.640759 46.40625,44.55941 L 38.375,42.716623 C 38.29626,42.698751 38.203146,42.684259 38.09375,42.68049 L 34,42.492598 C 36.790145,41.775563 38.5,40.829653 38.5,39.789845 C 38.5,37.555955 30.66,35.742942 21,35.742942 z" transform="matrix(1,0,0,0.9,1.5,5.3313522)"/></g><g id="layer5" style="display:inline"><path style="opacity:.6;color:#000;fill:url(#radialGradient4925);fill-opacity:1;fill-rule:nonzero;stroke:none;stroke-width:2;stroke-linecap:round;stroke-linejoin:round;marker:none;marker-start:none;marker-mid:none;marker-end:none;stroke-miterlimit:4;stroke-dasharray:none;stroke-dashoffset:0;stroke-opacity:1;visibility:visible;display:inline;overflow:visible" id="path1425" d="M 31 18.25 A 13.5 13.75 0 1 1 4,18.25 A 13.5 13.75 0 1 1 31 18.25 z" transform="matrix(1.185185,0,0,1.163637,0.259261,-1.236368)"/><path style="opacity:.5;color:#000;fill:url(#radialGradient4960);fill-opacity:1;fill-rule:nonzero;stroke:none;stroke-width:2;stroke-linecap:round;stroke-linejoin:round;marker:none;marker-start:none;marker-mid:none;marker-end:none;stroke-miterlimit:4;stroke-dasharray:none;stroke-dashoffset:0;stroke-opacity:1;visibility:visible;display:inline;overflow:visible" id="path4939" d="M 20.430801,3.5 C 11.914639,3.824042 5.1019281,10.849356 5.1019281,19.444373 C 5.1019281,21.861291 6.5050447,24.166163 7.5932363,26.15625 C 7.1211653,20.728065 9.4598537,19.543069 11.012791,20.025177 C 15.724296,21.487861 23.900134,22.817382 32.299922,18.431707 C 35.244588,16.894246 36.961785,20.661175 36.844126,17.275469 C 35.904686,9.4808807 29.114153,3.5000001 21.046301,3.5 C 20.840021,3.5 20.635189,3.492223 20.430801,3.5 z"/><path id="path2607" d="M 62.5 4.5 A 10 10 0 1 1 42.5,4.5 A 10 10 0 1 1 62.5 4.5 z" transform="matrix(1.6,0,0,1.6,-63,12.8)" style="color:#000;fill:none;fill-opacity:1;fill-rule:nonzero;stroke:url(#radialGradient1411);stroke-width:1.87499988;stroke-linecap:round;stroke-linejoin:miter;marker:none;marker-start:none;marker-mid:none;marker-end:none;stroke-miterlimit:4;stroke-dasharray:none;stroke-dashoffset:0;stroke-opacity:1;visibility:visible;display:inline;overflow:visible"/><g id="g2708" transform="matrix(1.544052,0,0,1.536016,-85.57756,-44.44515)"><path style="color:#000;fill:url(#linearGradient1421);fill-opacity:1;fill-rule:nonzero;stroke:url(#linearGradient1423);stroke-width:.67653471;stroke-linecap:round;stroke-linejoin:round;marker:none;marker-start:none;marker-mid:none;marker-end:none;stroke-miterlimit:4;stroke-dashoffset:0;stroke-opacity:1;visibility:visible;display:inline;overflow:visible" id="path2682" d="M 76.796351,49.768459 L 77.443998,53.023634 L 82.625171,58.237128 C 82.817674,58.430832 83.596641,58.55743 84.56811,57.580878 C 85.53958,56.604326 85.463684,55.876998 85.215757,55.627773 L 80.034584,50.419494 L 76.796351,49.768459 z"/><path style="opacity:.19215686;color:#000;fill:#fff;fill-opacity:1;fill-rule:nonzero;stroke:none;stroke-width:.99999964;stroke-linecap:round;stroke-linejoin:miter;marker:none;marker-start:none;marker-mid:none;marker-end:none;stroke-miterlimit:4;stroke-dashoffset:0;stroke-opacity:1;visibility:visible;display:inline;overflow:visible" id="path2687" d="M 79.567301,51.320041 C 79.564315,51.331245 79.861402,51.644359 79.32201,52.185023 C 78.782611,52.725686 78.314866,52.559011 78.328524,52.545282 L 78.059375,51.023705 L 79.567301,51.320041 z"/></g><path id="path17267" d="M 34.284644,33.278595 L 34.90721,36.479814 L 42.406806,44.02859 C 42.77564,44.399843 43.340655,44.246496 44.274502,43.312648 C 45.208352,42.3788 45.449128,41.911353 44.985457,41.44495 L 37.485862,33.90116 L 34.284644,33.278595 z" style="opacity:1;color:#000;fill:none;fill-opacity:1;fill-rule:nonzero;stroke:url(#linearGradient19906);stroke-width:.99999934;stroke-linecap:round;stroke-linejoin:miter;marker:none;marker-start:none;marker-mid:none;marker-end:none;stroke-miterlimit:4;stroke-dasharray:none;stroke-dashoffset:0;stroke-opacity:1;visibility:visible;display:inline;overflow:visible"/><path style="opacity:.15294118;color:#000;fill:url(#linearGradient19920);fill-opacity:1;fill-rule:nonzero;stroke:none;stroke-width:.67653471;stroke-linecap:round;stroke-linejoin:round;marker:none;marker-start:none;marker-mid:none;marker-end:none;stroke-miterlimit:4;stroke-dashoffset:0;stroke-opacity:1;visibility:visible;display:inline;overflow:visible" id="path19908" d="M 32.831928,31.491641 C 32.5721,31.57915 32.424582,31.851686 32.494166,32.115648 L 33.50745,37.1077 C 33.532728,37.199365 33.582796,37.282377 33.652205,37.347702 L 41.613723,45.363786 C 41.970537,45.720948 42.509181,45.825341 43.157775,45.699789 C 43.80637,45.574237 44.570165,45.162961 45.37735,44.355775 C 46.177873,43.555254 46.590458,42.839054 46.728396,42.195753 C 46.866334,41.552451 46.742411,40.963513 46.390634,40.611736 L 38.380865,32.643653 C 38.302123,32.566369 38.200751,32.515947 38.091355,32.499652 L 33.121437,31.491641 C 33.026862,31.464506 32.926503,31.464506 32.831928,31.491641 z"/><path id="path2605" d="M 62.5 4.5 A 10 10 0 1 1 42.5,4.5 A 10 10 0 1 1 62.5 4.5 z" transform="matrix(1.65,0,0,1.65,-65.625,12.575)" style="color:#000;fill:none;fill-opacity:1;fill-rule:nonzero;stroke:url(#radialGradient1409);stroke-width:.60606074;stroke-linecap:round;stroke-linejoin:miter;marker:none;marker-start:none;marker-mid:none;marker-end:none;stroke-miterlimit:4;stroke-dasharray:none;stroke-dashoffset:0;stroke-opacity:1;visibility:visible;display:inline;overflow:visible"/><path id="path2599" d="M 62.5 4.5 A 10 10 0 1 1 42.5,4.5 A 10 10 0 1 1 62.5 4.5 z" transform="matrix(1.75,0,0,1.75,-70.875,12.125)" style="color:#000;fill:none;fill-opacity:1;fill-rule:nonzero;stroke:url(#linearGradient23440);stroke-width:.57142824;stroke-linecap:round;stroke-linejoin:miter;marker:none;marker-start:none;marker-mid:none;marker-end:none;stroke-miterlimit:4;stroke-dasharray:none;stroke-dashoffset:0;stroke-opacity:1;visibility:visible;display:inline;overflow:visible"/><path id="path4927" d="M 62.5 4.5 A 10 10 0 1 1 42.5,4.5 A 10 10 0 1 1 62.5 4.5 z" transform="matrix(1.453172,0,0,1.453175,-55.29154,13.46071)" style="color:#000;fill:none;fill-opacity:1;fill-rule:nonzero;stroke:url(#linearGradient4937);stroke-width:.68814939;stroke-linecap:round;stroke-linejoin:miter;marker:none;marker-start:none;marker-mid:none;marker-end:none;stroke-miterlimit:4;stroke-dasharray:none;stroke-dashoffset:0;stroke-opacity:1;visibility:visible;display:inline;overflow:visible"/><path style="opacity:.16078431;color:#000;fill:url(#radialGradient11108);fill-opacity:1;fill-rule:nonzero;stroke:none;stroke-width:1;stroke-linecap:round;stroke-linejoin:miter;marker:none;marker-start:none;marker-mid:none;marker-end:none;stroke-miterlimit:4;stroke-dasharray:none;stroke-dashoffset:0;stroke-opacity:1;visibility:visible;display:inline;overflow:visible" id="path11092" d="M 22.1875 12.9375 A 9.8125 9.8125 0 1 1 2.5625,12.9375 A 9.8125 9.8125 0 1 1 22.1875 12.9375 z" transform="matrix(1.324842,0,0,1.324842,4.605084,2.859861)"/><g id="g1399" transform="translate(-2.905726e-7,1)" style="opacity:.76078431"><path id="rect8466" d="M 12.5,16.5 L 12.5,21.5 L 29.5,21.5 L 29.5,16.5 L 12.5,16.5 z" style="opacity:1;color:#000;fill:url(#linearGradient17263);fill-opacity:1;fill-rule:nonzero;stroke:#3465a4;stroke-width:1;stroke-linecap:round;stroke-linejoin:miter;marker:none;marker-start:none;marker-mid:none;marker-end:none;stroke-miterlimit:4;stroke-dasharray:none;stroke-dashoffset:0;stroke-opacity:1;visibility:visible;display:inline;overflow:visible"/><path id="rect12861" d="M 13.5,17.5 L 13.5,20.5 L 28.5,20.5 L 28.5,17.5 L 13.5,17.5 z" style="opacity:1;color:#000;fill:none;fill-opacity:1;fill-rule:nonzero;stroke:#fff;stroke-width:1;stroke-linecap:round;stroke-linejoin:miter;marker:none;marker-start:none;marker-mid:none;marker-end:none;stroke-miterlimit:4;stroke-dasharray:none;stroke-dashoffset:0;stroke-opacity:1;visibility:visible;display:inline;overflow:visible"/></g></g></svg>