<svg xmlns="http://www.w3.org/2000/svg" xmlns:svg="http://www.w3.org/2000/svg" xmlns:xlink="http://www.w3.org/1999/xlink" id="svg7032" width="48" height="48" version="1.1"><defs id="defs3"><linearGradient id="linearGradient2315"><stop style="stop-color:#fff;stop-opacity:1" id="stop2317" offset="0"/><stop style="stop-color:#fff;stop-opacity:0" id="stop2319" offset="1"/></linearGradient><radialGradient id="radialGradient1358" cx="4.392" cy="32.308" r="6.375" fx="4.392" fy="32.308" gradientTransform="matrix(1.000000,-2.843321e-17,5.340760e-18,0.509804,5.770894e-16,16.05392)" gradientUnits="userSpaceOnUse" xlink:href="#linearGradient2315"/><radialGradient id="radialGradient1360" cx="4.392" cy="32.308" r="6.375" fx="4.392" fy="32.308" gradientTransform="matrix(1.000000,-1.083254e-16,1.454372e-17,0.509804,1.185203e-14,16.05392)" gradientUnits="userSpaceOnUse" xlink:href="#linearGradient2315"/></defs><metadata id="metadata4"/><g id="layer1"><path id="path7042" d="m 41.625,7.7951523 c 0,0 -23.0625,2.8346457 -23.0625,2.8346457 v 21.78125 c -1.645955,-0.557651 -3.931785,-0.703429 -6.4375,-0.1875 -4.356314,0.896969 -7.4778602,3.299487 -7,5.34375 0.4778601,2.044263 4.393685,2.99072 8.75,2.09375 4.116641,-0.84762 7.684123,-3.037802 7.602633,-5 l 0.15625,-19.03125 c 0,0 16.930457,-2.895306 16.930457,-2.895306 v 17.284614 c -10.25,-1.5 -13.292201,2.893236 -12.81434,4.9375 0.47786,2.044263 4.393686,2.990719 8.75,2.09375 3.865376,-0.795885 6.63241,-2.763211 6.90625,-4.625 z" style="color:#000;display:block;visibility:visible;fill:#9db029;fill-opacity:1;fill-rule:nonzero;stroke:#596616;stroke-width:1;stroke-linecap:round;stroke-linejoin:round;stroke-miterlimit:4;stroke-dashoffset:0;stroke-opacity:1;marker:none;marker-start:none;marker-mid:none;marker-end:none"/><path style="color:#000;display:block;visibility:visible;opacity:.51176471;fill:none;fill-opacity:1;fill-rule:nonzero;stroke:#fff;stroke-width:1;stroke-linecap:butt;stroke-linejoin:miter;stroke-miterlimit:4;stroke-dasharray:none;stroke-dashoffset:0;stroke-opacity:1;marker:none;marker-start:none;marker-mid:none;marker-end:none" id="path2311" d="m 40.729036,8.8956383 c 0,0 -21.181769,2.8346457 -21.181769,2.8346457 V 33.568621 C 11.982012,31.663311 5.8141632,35.40303 6.2685944,37.347065 6.9730255,40.6661 20.646969,38.449299 20.569474,34.208305 l 0.148589,-19.473166 c 0,0 18.850374,-2.892332 18.850374,-2.892332 v 19.437166 c -7.566284,-1.926647 -13.265498,1.376384 -12.811066,3.32042 0.579431,3.194035 12.378226,2.113362 13.76364,-2.657146 z"/><ellipse style="color:#000;display:block;overflow:visible;visibility:visible;opacity:.51176471;fill:url(#radialGradient1358);fill-opacity:1;fill-rule:nonzero;stroke:none;stroke-width:1;stroke-linecap:butt;stroke-linejoin:miter;stroke-miterlimit:4;stroke-dasharray:none;stroke-dashoffset:0;stroke-opacity:1;marker:none;marker-start:none;marker-mid:none;marker-end:none" id="path2313" cx="5.875" cy="32.75" rx="6.375" ry="3.25" transform="matrix(0.734516,-0.111645,0.111645,0.734516,3.903362,12.22551)"/><ellipse id="path2323" cx="5.875" cy="32.75" rx="6.375" ry="3.25" transform="matrix(0.734516,-0.111645,0.111645,0.734516,23.74587,9.390864)" style="color:#000;display:block;overflow:visible;visibility:visible;opacity:.51176471;fill:url(#radialGradient1360);fill-opacity:1;fill-rule:nonzero;stroke:none;stroke-width:1;stroke-linecap:butt;stroke-linejoin:miter;stroke-miterlimit:4;stroke-dasharray:none;stroke-dashoffset:0;stroke-opacity:1;marker:none;marker-start:none;marker-mid:none;marker-end:none"/></g></svg>