<svg xmlns="http://www.w3.org/2000/svg" xmlns:svg="http://www.w3.org/2000/svg" xmlns:xlink="http://www.w3.org/1999/xlink" id="svg2" width="128" height="128" version="1.0"><defs id="defs4"><linearGradient id="linearGradient3227"><stop style="stop-color:#000;stop-opacity:1" id="stop3229" offset="0"/><stop style="stop-color:#000;stop-opacity:0" id="stop3231" offset="1"/></linearGradient><linearGradient id="linearGradient3207"><stop id="stop3209" offset="0" style="stop-color:#fff;stop-opacity:.48"/><stop id="stop3211" offset="1" style="stop-color:#fff;stop-opacity:0"/></linearGradient><linearGradient id="linearGradient3195"><stop style="stop-color:#d3d3d3;stop-opacity:1" id="stop3197" offset="0"/><stop style="stop-color:#d3d3d3;stop-opacity:0" id="stop3199" offset="1"/></linearGradient><linearGradient id="linearGradient3159"><stop style="stop-color:#fff;stop-opacity:1" id="stop3161" offset="0"/><stop style="stop-color:#fff;stop-opacity:0" id="stop3163" offset="1"/></linearGradient><linearGradient id="linearGradient2974"><stop style="stop-color:#fff;stop-opacity:1" id="stop2976" offset="0"/><stop style="stop-color:#fff;stop-opacity:0" id="stop2978" offset="1"/></linearGradient><linearGradient id="linearGradient1980" x1="-88.058" x2="-45.097" y1="-131.931" y2="-131.931" gradientTransform="matrix(0,1.022977,-1.022977,0,111.9686,137.8125)" gradientUnits="userSpaceOnUse" xlink:href="#linearGradient3711"/><radialGradient id="radialGradient1978" cx="343.999" cy="92" r="36" fx="343.999" fy="92" gradientUnits="userSpaceOnUse" xlink:href="#linearGradient3711"/><linearGradient id="linearGradient1976" x1="-70.003" x2="-11.916" y1="-383.997" y2="-383.997" gradientTransform="matrix(0,1,-1,0,-39.9985,140.0029)" gradientUnits="userSpaceOnUse" xlink:href="#linearGradient26907"/><radialGradient id="radialGradient3743" cx="63.912" cy="115.709" r="63.912" fx="63.975" fy="116.885" gradientTransform="matrix(1,0,0,0.197802,0,92.82166)" gradientUnits="userSpaceOnUse" xlink:href="#linearGradient3291"/><linearGradient id="linearGradient3291"><stop style="stop-color:#000;stop-opacity:1" id="stop3293" offset="0"/><stop style="stop-color:#000;stop-opacity:0" id="stop3295" offset="1"/></linearGradient><linearGradient id="linearGradient3711" x1="-84.002" x2="-23.516" y1="-383.997" y2="-383.998" gradientTransform="matrix(0,1,-1,0,-39.9985,140.0029)" gradientUnits="userSpaceOnUse"><stop style="stop-color:white;stop-opacity:1" id="stop3713" offset="0"/><stop style="stop-color:white;stop-opacity:0" id="stop3715" offset="1"/></linearGradient><linearGradient id="linearGradient26907" x1="-84.002" x2="-12.003" y1="-383.997" y2="-383.997" gradientTransform="matrix(0,1,-1,0,-39.9985,140.0029)" gradientUnits="userSpaceOnUse"><stop id="stop26909" offset="0" style="stop-color:#888a85;stop-opacity:1"/><stop id="stop26911" offset="1" style="stop-color:#000;stop-opacity:1"/></linearGradient><radialGradient id="radialGradient3297" cx="63.912" cy="115.709" r="63.912" fx="63.912" fy="115.709" gradientTransform="matrix(1,0,0,0.197802,0,92.82166)" gradientUnits="userSpaceOnUse" xlink:href="#linearGradient3291"/><linearGradient id="linearGradient2871"><stop id="stop2873" offset="0" style="stop-color:white;stop-opacity:1"/><stop id="stop2875" offset="1" style="stop-color:white;stop-opacity:0"/></linearGradient><linearGradient id="linearGradient2898"><stop id="stop2900" offset="0" style="stop-color:#2c72c7;stop-opacity:1"/><stop id="stop2902" offset="1" style="stop-color:#2c72c7;stop-opacity:0"/></linearGradient><radialGradient id="radialGradient2505" cx="63.249" cy="29.64" r="58.621" fx="63.249" fy="29.64" gradientTransform="matrix(-1.113341,0,0,0.899421,144.15267,184.75423)" gradientUnits="userSpaceOnUse" xlink:href="#linearGradient2898"/><radialGradient id="radialGradient2508" cx="63.249" cy="29.64" r="58.621" fx="63.249" fy="29.64" gradientTransform="matrix(-1.113341,0,0,0.899421,144.15267,184.75423)" gradientUnits="userSpaceOnUse" xlink:href="#linearGradient2898"/><radialGradient id="radialGradient2511" cx="63.249" cy="29.64" r="58.621" fx="63.249" fy="29.64" gradientTransform="matrix(-1.113341,0,0,0.899421,144.15267,184.75423)" gradientUnits="userSpaceOnUse" xlink:href="#linearGradient2898"/><radialGradient id="radialGradient2514" cx="63.249" cy="29.64" r="58.621" fx="63.249" fy="29.64" gradientTransform="matrix(-1.113341,0,0,0.899421,144.15267,184.75423)" gradientUnits="userSpaceOnUse" xlink:href="#linearGradient2898"/><linearGradient id="linearGradient2518" x1="50.39" x2="50.39" y1="6.626" y2="56.133" gradientTransform="matrix(-0.908626,0,0,0.908626,131.38537,118.41482)" gradientUnits="userSpaceOnUse" xlink:href="#linearGradient2871"/><linearGradient id="linearGradient2521" x1="50.789" x2="52.002" y1="-22.328" y2="98.047" gradientTransform="matrix(-0.908626,0,0,0.908626,131.38537,118.41482)" gradientUnits="userSpaceOnUse" xlink:href="#linearGradient2871"/><linearGradient id="linearGradient2524" x1="-88.058" x2="-45.097" y1="-131.931" y2="-131.931" gradientTransform="matrix(0,1.022977,-1.022977,0,118.90977,143.61542)" gradientUnits="userSpaceOnUse" xlink:href="#linearGradient3711"/><linearGradient id="linearGradient3502" x1="58.715" x2="58.715" y1="23.999" y2="69.301" gradientTransform="matrix(0.8571429,0,0,0.8571429,9.1428571,9.150686)" gradientUnits="userSpaceOnUse" xlink:href="#linearGradient3711"/><linearGradient id="linearGradient3505" x1="-88.058" x2="-45.097" y1="-131.931" y2="-131.931" gradientTransform="matrix(0,1.591298,-1.591298,0,-12.882452,195.15999)" gradientUnits="userSpaceOnUse" xlink:href="#linearGradient3711"/><linearGradient id="linearGradient2963" x1="72" x2="72" y1="-16" y2="64" gradientUnits="userSpaceOnUse" xlink:href="#linearGradient26907"/><radialGradient id="radialGradient2965" cx="79.34" cy="114.956" r="56" fx="79.34" fy="114.956" gradientTransform="matrix(1,-3.8781302e-8,2.0820407e-8,0.5714285,0.6601855,38.310745)" gradientUnits="userSpaceOnUse" xlink:href="#linearGradient26907"/><linearGradient id="linearGradient2980" x1="181" x2="205" y1="-32" y2="88" gradientTransform="translate(-125,0)" gradientUnits="userSpaceOnUse" xlink:href="#linearGradient2974"/><filter id="filter3550"><feGaussianBlur id="feGaussianBlur3552" stdDeviation="1.234"/></filter><linearGradient id="linearGradient3166"><stop id="stop3168" offset="0" style="stop-color:#e20800;stop-opacity:1"/><stop style="stop-color:#d80500;stop-opacity:1" id="stop3564" offset=".481"/><stop id="stop3170" offset="1" style="stop-color:#590000;stop-opacity:1"/></linearGradient><linearGradient id="linearGradient3554"><stop id="stop3556" offset="0" style="stop-color:#fff;stop-opacity:1"/><stop id="stop3558" offset="1" style="stop-color:#dfdfdf;stop-opacity:1"/></linearGradient><linearGradient id="linearGradient3124" x1="68.938" x2="68.938" y1="38.906" y2="103.407" gradientTransform="translate(13.42819,2.3017641)" gradientUnits="userSpaceOnUse" xlink:href="#linearGradient3554"/><radialGradient id="radialGradient3133" cx="62.781" cy="66.176" r="29.844" fx="62.781" fy="66.176" gradientTransform="matrix(1.3513697,0,0,1.3513697,-8.6312401,-20.634014)" gradientUnits="userSpaceOnUse" xlink:href="#linearGradient3207"/><linearGradient id="linearGradient3165" x1="80" x2="72" y1="68" y2="44" gradientUnits="userSpaceOnUse" xlink:href="#linearGradient3159"/><linearGradient id="linearGradient3189" x1="185.046" x2="205" y1="-8" y2="88" gradientTransform="translate(-125.04645,0)" gradientUnits="userSpaceOnUse" xlink:href="#linearGradient2974"/><linearGradient id="linearGradient3191" x1="270.033" x2="142.033" y1="95" y2="31" gradientTransform="translate(-125.06218,0)" gradientUnits="userSpaceOnUse" xlink:href="#linearGradient2974"/><linearGradient id="linearGradient3201" x1="72" x2="72" y1="108" y2="60" gradientUnits="userSpaceOnUse" xlink:href="#linearGradient3195"/><filter id="filter3221"><feGaussianBlur id="feGaussianBlur3223" stdDeviation=".212"/></filter><linearGradient id="linearGradient3233" x1="88" x2="88" y1="112" y2="-8" gradientTransform="translate(0,0.8)" gradientUnits="userSpaceOnUse" xlink:href="#linearGradient3227"/><filter id="filter3243"><feGaussianBlur id="feGaussianBlur3245" stdDeviation="1.38"/></filter><linearGradient id="linearGradient3249" x1="72" x2="72" y1="-16" y2="64" gradientTransform="translate(129.5,0)" gradientUnits="userSpaceOnUse" xlink:href="#linearGradient26907"/><radialGradient id="radialGradient3277" cx="241.763" cy="31.513" r="3.5" fx="241.763" fy="31.513" gradientTransform="matrix(0.8076259,0.5896951,-1.6428571,2.25,99.016782,-182.84482)" gradientUnits="userSpaceOnUse" xlink:href="#linearGradient3159"/><radialGradient id="radialGradient3285" cx="185.853" cy="31.164" r="3.563" fx="185.853" fy="31.164" gradientTransform="matrix(0.9135171,-0.4068004,1,2.2456148,-16.006057,35.372984)" gradientUnits="userSpaceOnUse" xlink:href="#linearGradient3159"/><radialGradient id="radialGradient3293" cx="184.821" cy="105.39" r="2.703" fx="184.821" fy="105.39" gradientTransform="matrix(0.7757118,0.6310874,-3.3294798,4.0924865,391.47818,-441.38143)" gradientUnits="userSpaceOnUse" xlink:href="#linearGradient3195"/><radialGradient id="radialGradient3301" cx="243.406" cy="105.531" r="2.594" fx="243.406" fy="105.531" gradientTransform="matrix(0.7165883,-0.6974964,1.9764912,2.0305916,-139.5974,61.015368)" gradientUnits="userSpaceOnUse" xlink:href="#linearGradient3195"/><filter id="filter3383" width="1.892" height="1.728" x="-.446" y="-.364"><feGaussianBlur id="feGaussianBlur3385" stdDeviation="1.004"/></filter><filter id="filter3387" width="1.929" height="1.812" x="-.465" y="-.406"><feGaussianBlur id="feGaussianBlur3389" stdDeviation="1.004"/></filter><filter id="filter3391" width="1.689" height="1.551" x="-.344" y="-.275"><feGaussianBlur id="feGaussianBlur3393" stdDeviation="1.004"/></filter><filter id="filter3395" width="1.677" height="1.536" x="-.338" y="-.268"><feGaussianBlur id="feGaussianBlur3397" stdDeviation="1.004"/></filter><clipPath id="clipPath3405" clipPathUnits="userSpaceOnUse"><path id="path3407" d="M 185.5,28 C 184.50724,27.998369 183.54934,28.365936 182.8125,29.03125 L 142.8125,65.03125 C 141.97272,65.789734 141.49347,66.868398 141.49347,68 C 141.49347,69.131602 141.97272,70.210266 142.8125,70.96875 L 182.8125,106.96875 C 183.54934,107.63406 184.50724,108.00163 185.5,108 L 241.5,108 C 243.70905,107.99978 245.49978,106.20905 245.5,104 L 245.5,32 C 245.49978,29.790952 243.70905,28.000221 241.5,28 L 185.5,28 z" style="fill:url(#linearGradient3409);fill-opacity:1;fill-rule:nonzero;stroke:none;stroke-width:8;stroke-linecap:round;stroke-linejoin:round;stroke-miterlimit:4;stroke-dasharray:none;stroke-dashoffset:4;stroke-opacity:1"/></clipPath><linearGradient id="linearGradient3409" x1="72" x2="72" y1="-16" y2="64" gradientTransform="translate(129.5,0)" gradientUnits="userSpaceOnUse" xlink:href="#linearGradient26907"/><radialGradient id="radialGradient3411" cx="185.853" cy="31.164" r="3.563" fx="185.853" fy="31.164" gradientTransform="matrix(0.9135171,-0.4068004,1,2.2456148,-16.006057,35.372984)" gradientUnits="userSpaceOnUse" xlink:href="#linearGradient3159"/><radialGradient id="radialGradient3413" cx="241.763" cy="31.513" r="3.5" fx="241.763" fy="31.513" gradientTransform="matrix(0.8076259,0.5896951,-1.6428571,2.25,99.016782,-182.84482)" gradientUnits="userSpaceOnUse" xlink:href="#linearGradient3159"/><radialGradient id="radialGradient3415" cx="243.406" cy="105.531" r="2.594" fx="243.406" fy="105.531" gradientTransform="matrix(0.7165883,-0.6974964,1.9764912,2.0305916,-139.5974,61.015368)" gradientUnits="userSpaceOnUse" xlink:href="#linearGradient3195"/><radialGradient id="radialGradient3417" cx="184.821" cy="105.39" r="2.703" fx="184.821" fy="105.39" gradientTransform="matrix(0.7757118,0.6310874,-3.3294798,4.0924865,391.47818,-441.38143)" gradientUnits="userSpaceOnUse" xlink:href="#linearGradient3195"/></defs><metadata id="metadata7"/><g id="layer1"><path id="path3225" d="M 56,28.8 C 55.00724,28.798369 54.049339,29.165936 53.3125,29.83125 L 13.3125,65.83125 C 12.472723,66.589734 11.993466,67.668398 11.993466,68.8 C 11.993466,69.931602 12.472723,71.010266 13.3125,71.76875 L 53.3125,107.76875 C 54.049339,108.43406 55.00724,108.80163 56,108.8 L 112,108.8 C 114.20905,108.79978 115.99978,107.00905 116,104.8 L 116,32.8 C 115.99978,30.590952 114.20905,28.800221 112,28.8 L 56,28.8 z" style="fill:url(#linearGradient3233);fill-opacity:1;fill-rule:nonzero;stroke:none;stroke-width:8;stroke-linecap:round;stroke-linejoin:round;stroke-miterlimit:4;stroke-dasharray:none;stroke-dashoffset:4;stroke-opacity:1;filter:url(#filter3243)"/><path style="fill:url(#linearGradient2963);fill-opacity:1;fill-rule:nonzero;stroke:none;stroke-width:8;stroke-linecap:round;stroke-linejoin:round;stroke-miterlimit:4;stroke-dasharray:none;stroke-dashoffset:4;stroke-opacity:1" id="path2941" d="M 56,28 C 55.00724,27.998369 54.049339,28.365936 53.3125,29.03125 L 13.3125,65.03125 C 12.472723,65.789734 11.993466,66.868398 11.993466,68 C 11.993466,69.131602 12.472723,70.210266 13.3125,70.96875 L 53.3125,106.96875 C 54.049339,107.63406 55.00724,108.00163 56,108 L 112,108 C 114.20905,107.99978 115.99978,106.20905 116,104 L 116,32 C 115.99978,29.790952 114.20905,28.000221 112,28 L 56,28 z"/><g id="g3399" clip-path="url(#clipPath3405)" transform="translate(-129.5,0)" style="stroke:none"><path id="path3251" d="M 185.5,28 C 184.50724,27.998369 183.54934,28.365936 182.8125,29.03125 L 181.875,29.875 L 188,36 L 188,28 L 185.5,28 z" style="fill:url(#radialGradient3411);fill-opacity:1;fill-rule:evenodd;stroke:none;stroke-width:1px;stroke-linecap:butt;stroke-linejoin:miter;stroke-opacity:1;filter:url(#filter3395)"/><path id="path3253" d="M 240,28 L 239.5,35.75 L 245.5,32 C 245.49978,29.790952 243.70905,28.000221 241.5,28 L 240,28 z" style="fill:url(#radialGradient3413);fill-opacity:1;fill-rule:evenodd;stroke:none;stroke-width:1px;stroke-linecap:butt;stroke-linejoin:miter;stroke-opacity:1;filter:url(#filter3391)"/><path id="path3255" d="M 241.3125,103.0625 L 241.375,108 L 241.5,108 C 243.70905,107.99978 245.49978,106.20905 245.5,104 L 245.5,103.09375 L 241.3125,103.0625 z" style="fill:url(#radialGradient3415);fill-opacity:1;fill-rule:evenodd;stroke:none;stroke-width:1px;stroke-linecap:butt;stroke-linejoin:miter;stroke-opacity:1;filter:url(#filter3387)"/><path id="path3257" d="M 186.15625,102.375 L 181.75,106 L 182.8125,106.96875 C 183.54934,107.63406 184.50724,108.00163 185.5,108 L 185.53125,108 L 186.15625,102.375 z" style="fill:url(#radialGradient3417);fill-opacity:1;fill-rule:evenodd;stroke:none;stroke-width:1px;stroke-linecap:butt;stroke-linejoin:miter;stroke-opacity:1;filter:url(#filter3383)"/></g><path style="fill:url(#radialGradient2965);fill-opacity:1;fill-rule:nonzero;stroke:none;stroke-width:2;stroke-linecap:round;stroke-linejoin:round;stroke-miterlimit:4;stroke-dasharray:none;stroke-dashoffset:4;stroke-opacity:1" id="rect1969" d="M 56,32 L 16,68 L 56,104 L 112,104 L 112,32 L 56,32 z"/><path style="fill:url(#linearGradient2980);fill-opacity:1;fill-rule:nonzero;stroke:none;stroke-width:2;stroke-linecap:round;stroke-linejoin:round;stroke-miterlimit:4;stroke-dasharray:none;stroke-dashoffset:4;stroke-opacity:1" id="path2967" d="M 56,32 L 16,68 L 20.90625,72.40625 C 28.06745,72.9539 35.45384,73.25 43,73.25 C 68.68969,73.25 92.47254,69.930267 112,64.28125 L 112,32 L 56,32 z"/><path id="path3528" d="M 59.17819,37.864264 L 47.36569,49.645514 L 64.42819,66.708014 L 47.36569,83.739264 L 59.17819,95.551764 L 76.20944,78.489264 L 93.27194,95.551764 L 105.05319,83.739264 L 88.02194,66.708014 L 105.05319,49.645514 L 93.27194,37.864264 L 76.20944,54.895514 L 59.17819,37.864264 z" style="fill:none;fill-opacity:1;stroke:url(#radialGradient3133);stroke-width:5;stroke-linecap:round;stroke-linejoin:round;stroke-miterlimit:4;stroke-dasharray:none;stroke-opacity:1;filter:url(#filter3550)"/><path style="fill:url(#linearGradient3124);fill-opacity:1;stroke:none;stroke-width:.88499999;stroke-linecap:round;stroke-linejoin:round;stroke-miterlimit:4;stroke-dasharray:none;stroke-opacity:1" id="rect3376" d="M 59.17819,37.864264 L 47.36569,49.645514 L 64.42819,66.708014 L 47.36569,83.739264 L 59.17819,95.551764 L 76.20944,78.489264 L 93.27194,95.551764 L 105.05319,83.739264 L 88.02194,66.708014 L 105.05319,49.645514 L 93.27194,37.864264 L 76.20944,54.895514 L 59.17819,37.864264 z"/><path style="fill:url(#linearGradient3165);fill-opacity:1;stroke:none;stroke-width:.88499998999999985;stroke-linecap:round;stroke-linejoin:round;stroke-miterlimit:4;stroke-dasharray:none;stroke-opacity:1" id="path3152" d="M 59.1875 37.875 L 47.375 49.65625 L 64.4375 66.71875 L 58.28125 72.84375 C 69.592944 72.251707 80.43036 71.012655 90.53125 69.21875 L 88.03125 66.71875 L 105.0625 49.65625 L 93.28125 37.875 L 76.21875 54.90625 L 59.1875 37.875 z"/><path style="fill:url(#linearGradient3189);fill-opacity:1;fill-rule:nonzero;stroke:none;stroke-width:2;stroke-linecap:round;stroke-linejoin:round;stroke-miterlimit:4;stroke-dasharray:none;stroke-dashoffset:4;stroke-opacity:1" id="path3169" d="M 55.95248,32 L 15.95248,68 L 55.95248,33 L 111.95248,33 L 111.95248,32 L 55.95248,32 z"/><path style="fill:url(#linearGradient3191);fill-opacity:1;fill-rule:nonzero;stroke:none;stroke-width:2;stroke-linecap:round;stroke-linejoin:round;stroke-miterlimit:4;stroke-dasharray:none;stroke-dashoffset:4;stroke-opacity:1" id="path3177" d="M 111.03303,63.28125 C 91.505567,68.930267 67.722717,72.25 42.033027,72.25 C 34.486867,72.25 27.100477,71.9539 19.939277,71.40625 L 16.033027,67.90625 L 15.939277,68 L 20.845527,72.40625 C 28.006727,72.9539 35.393117,73.25 42.939277,73.25 C 68.628967,73.25 92.411817,69.930267 111.93928,64.28125 L 111.93928,32 L 111.03303,63.28125 z"/><path id="path3193" d="M 56,32 L 16,68 L 56,104 L 112,104 L 112,32 L 56,32 z" style="fill:none;fill-opacity:1;fill-rule:nonzero;stroke:url(#linearGradient3201);stroke-width:1;stroke-linecap:round;stroke-linejoin:round;stroke-miterlimit:4;stroke-dasharray:none;stroke-dashoffset:4;stroke-opacity:1;filter:url(#filter3221);opacity:.604"/></g></svg>