<svg xmlns="http://www.w3.org/2000/svg" xmlns:svg="http://www.w3.org/2000/svg" xmlns:xlink="http://www.w3.org/1999/xlink" id="svg10" width="30.244" height="30.244" version="1.2" viewBox="8.536 0.002 4.556 4.554"><metadata id="metadata16"/><g id="g827" transform="translate(0.36790088,-0.00763456)"><a id="a4" xlink:href="textedit:///home/uliska/git/lilypond/frescobaldi/frescobaldi_app/icons/music-directions.ly:23:9:10" style="color:inherit"><path style="fill:currentColor" id="path2" d="m -67,-48 c 0,37 30,67 67,67 37,0 67,-30 67,-67 0,-37 -30,-67 -67,-67 -37,0 -67,30 -67,67 z M 0,-363 c -157,0 -332,176 -332,366 0,9 10,15 19,15 9,0 17,-5 19,-18 26,-148 146,-262 294,-262 148,0 268,114 294,262 2,13 10,18 19,18 9,0 19,-6 19,-15 0,-190 -175,-366 -332,-366 z" transform="matrix(0.004,0,0,-0.004,10.5358,3.104)"/></a><a id="a8" xlink:href="textedit:///home/uliska/git/lilypond/frescobaldi/frescobaldi_app/icons/music-directions.ly:18:10:11" style="color:inherit"><path style="fill:currentColor" id="path6" d="m -67,48 c 0,37 30,67 67,67 37,0 67,-30 67,-67 0,-37 -30,-67 -67,-67 -37,0 -67,30 -67,67 z M 0,363 c 157,0 332,-176 332,-366 0,-9 -10,-15 -19,-15 -9,0 -17,5 -19,18 C 268,148 148,262 0,262 -148,262 -268,148 -294,0 c -2,-13 -10,-18 -19,-18 -9,0 -19,6 -19,15 0,190 175,366 332,366 z" transform="matrix(0.004,0,0,-0.004,10.5358,1.452)"/></a></g></svg>