<svg xmlns="http://www.w3.org/2000/svg" xmlns:svg="http://www.w3.org/2000/svg" xmlns:xlink="http://www.w3.org/1999/xlink" id="svg2" width="150" height="150" version="1.1"><defs id="defs4"><linearGradient id="linearGradient4521"><stop style="stop-color:#f9f9f9;stop-opacity:1" id="stop4523" offset="0"/><stop style="stop-color:#fff;stop-opacity:0" id="stop4525" offset="1"/></linearGradient><linearGradient id="linearGradient4505"><stop style="stop-color:#999;stop-opacity:1" id="stop4507" offset="0"/><stop id="stop4513" offset=".386" style="stop-color:#e6e6e6;stop-opacity:1"/><stop style="stop-color:#989898;stop-opacity:1" id="stop4517" offset=".563"/><stop style="stop-color:#333;stop-opacity:1" id="stop4515" offset=".717"/><stop style="stop-color:#999;stop-opacity:1" id="stop4509" offset="1"/></linearGradient><linearGradient id="linearGradient4487"><stop id="stop4489" offset="0" style="stop-color:#d40000;stop-opacity:1"/><stop style="stop-color:red;stop-opacity:1" id="stop4491" offset=".055"/><stop id="stop4493" offset=".25" style="stop-color:#ff8080;stop-opacity:1"/><stop style="stop-color:#f55;stop-opacity:1" id="stop4495" offset=".43"/><stop style="stop-color:red;stop-opacity:1" id="stop4497" offset=".701"/><stop id="stop4499" offset="1" style="stop-color:#a00;stop-opacity:1"/></linearGradient><linearGradient id="linearGradient4463"><stop style="stop-color:maroon;stop-opacity:1" id="stop4465" offset="0"/><stop id="stop4471" offset=".543" style="stop-color:red;stop-opacity:1"/><stop style="stop-color:#f55;stop-opacity:1" id="stop4467" offset="1"/></linearGradient><linearGradient id="linearGradient4447"><stop style="stop-color:#d40000;stop-opacity:1" id="stop4449" offset="0"/><stop id="stop4455" offset=".196" style="stop-color:red;stop-opacity:1"/><stop style="stop-color:#ff8080;stop-opacity:1" id="stop4457" offset=".353"/><stop id="stop4461" offset=".559" style="stop-color:#f55;stop-opacity:1"/><stop id="stop4459" offset=".735" style="stop-color:red;stop-opacity:1"/><stop style="stop-color:#a00;stop-opacity:1" id="stop4451" offset="1"/></linearGradient><linearGradient id="linearGradient4453" x1="43" x2="77" y1="67.362" y2="67.362" gradientTransform="matrix(1.068036,1.068036,-1.068036,1.068036,94.08323,832.10507)" gradientUnits="userSpaceOnUse" xlink:href="#linearGradient4447"/><radialGradient id="radialGradient4469" cx="59.554" cy="84.077" r="40.637" fx="59.554" fy="84.077" gradientTransform="matrix(1,0,0,0.53448276,0,39.139234)" gradientUnits="userSpaceOnUse" xlink:href="#linearGradient4463"/><linearGradient id="linearGradient4479" x1="28.519" x2="77.57" y1="55.701" y2="88.018" gradientTransform="matrix(1.1839772,1.1839772,-1.0162471,1.0162471,125.21383,786.0427)" gradientUnits="userSpaceOnUse" xlink:href="#linearGradient4447"/><linearGradient id="linearGradient4485" x1="9.265" x2="101.314" y1="60.058" y2="105.177" gradientUnits="userSpaceOnUse" xlink:href="#linearGradient4487"/><linearGradient id="linearGradient4511" x1="21.367" x2="67.179" y1="108.612" y2="112.612" gradientTransform="matrix(1.4384487,1.4384488,-1.9670415,1.9670416,186.60322,695.46561)" gradientUnits="userSpaceOnUse" xlink:href="#linearGradient4505"/><linearGradient id="linearGradient4527" x1="58.492" x2="65.868" y1="111.3" y2="111.3" gradientTransform="matrix(1.4384487,1.4384488,-1.9670415,1.9670416,186.60322,695.46561)" gradientUnits="userSpaceOnUse" spreadMethod="reflect" xlink:href="#linearGradient4521"/></defs><metadata id="metadata7"/><g id="layer1" transform="translate(0,-902.36215)"><path style="fill:url(#linearGradient4511);fill-opacity:1;stroke:none" id="path4503" d="M 88.742215,943.26175 8.5917194,1042.1121 109.89326,964.90456 z"/><path id="path4519" d="M 88.742215,943.26175 8.5917194,1042.1121 109.89326,964.90456 z" style="opacity:.85201793;fill:url(#linearGradient4527);fill-opacity:1;stroke:none"/><path id="path2985" d="m 100.1916,84.076874 c 0,11.995546 -18.193869,21.719856 -40.637149,21.719856 -22.44328,0 -40.637154,-9.72431 -40.637154,-21.719856 0,-11.995547 18.193874,-21.719858 40.637154,-21.719858 22.44328,0 40.637149,9.724311 40.637149,21.719858 z" transform="matrix(0.73611654,0.73611654,-0.73611654,0.73611654,84.074696,881.64816)" style="fill:url(#radialGradient4469);fill-opacity:1;fill-rule:evenodd;stroke:none"/><path id="path3757" d="m 139.62195,957.4521 c -5.89859,5.89861 -20.24388,1.11685 -32.04108,-10.68036 -11.797201,-11.7972 -16.57896,-26.14247 -10.68036,-32.04108 5.8986,-5.8986 20.24388,-1.11684 32.04108,10.68036 11.7972,11.79721 16.57896,26.14248 10.68036,32.04108 z" style="fill:url(#linearGradient4479);fill-opacity:1;fill-rule:evenodd;stroke:none"/><path style="fill:url(#linearGradient4453);fill-opacity:1;stroke:none" id="path4445" d="M 54.179069,968.13246 96.90051,914.73067 c 0,0 -5.006418,4.07188 -1.134788,14.35173 2.336329,5.80744 4.338898,9.94608 11.815148,17.68934 0,0 7.3844,7.78494 16.61421,11.18598 5.00025,1.84252 11.67394,3.24731 15.42687,-0.50562 l -53.4018,42.7214 c 0,0 -10.680362,10.6804 -26.700902,-5.34013 -16.020543,-16.02054 -5.340179,-26.70091 -5.340179,-26.70091 z"/><path style="fill:url(#linearGradient4485);fill-opacity:1;fill-rule:evenodd;stroke:none" id="path4481" d="m 100.1916,84.076874 c 0,11.995546 -18.193869,21.719856 -40.637149,21.719856 -22.44328,0 -40.637154,-9.72431 -40.637154,-21.719856 0,-11.995547 18.193874,-21.719858 40.637154,-21.719858 22.44328,0 40.637149,9.724311 40.637149,21.719858 z" transform="matrix(0.59474348,0.59474347,-0.59474347,0.59474348,132.94165,849.62)"/></g></svg>