<svg xmlns="http://www.w3.org/2000/svg" xmlns:svg="http://www.w3.org/2000/svg" xmlns:xlink="http://www.w3.org/1999/xlink" id="svg2" width="128" height="128" version="1.2" viewBox="0 0 20.557 20.557"><metadata id="metadata24"/><g style="color:#00f" id="g8" transform="matrix(8.3088748,0,0,8.3088748,-116.38633,-28.865749)"><path style="fill:currentColor" id="path10" d="M 72,-250 189,76 C 155,64 120,54 84,54 38,54 -3,87 -3,133 c 0,40 33,72 73,72 25,0 48,-15 56,-39 10,-28 6,-59 35,-59 16,0 54,48 61,63 6,12 23,12 28,0 L 127,-250 c -8,-7 -17,-10 -27,-10 -10,0 -20,3 -28,10 z" transform="matrix(0.004,0,0,-0.004,14.7264,4.6653)"/></g><a id="a12" transform="translate(31.0704,16.698604)" xlink:href="http://lilypond.org/"><rect style="fill:none;stroke:none" id="rect14" width="57.361" height="2.049" x="0" y="-.444"/></a></svg>